<?xml version="1.0" encoding="UTF-8" standalone="no"?>
<svg
   xmlns:dc="http://purl.org/dc/elements/1.1/"
   xmlns:cc="http://creativecommons.org/ns#"
   xmlns:rdf="http://www.w3.org/1999/02/22-rdf-syntax-ns#"
   xmlns:svg="http://www.w3.org/2000/svg"
   xmlns="http://www.w3.org/2000/svg"
   viewBox="0 0 4002.6667 4002.6667"
   height="4002.6667"
   width="4002.6667"
   xml:space="preserve"
   id="svg2"
   version="1.1"><metadata
     id="metadata8"><rdf:RDF><cc:Work
         rdf:about=""><dc:format>image/svg+xml</dc:format><dc:type
           rdf:resource="http://purl.org/dc/dcmitype/StillImage" /></cc:Work></rdf:RDF></metadata><defs
     id="defs6" /><g
     transform="matrix(1.3333333,0,0,-1.3333333,0,4002.6667)"
     id="g10"><g
       transform="scale(0.1)"
       id="g12"><g
         transform="scale(1.02024)"
         id="g18"><path
           id="path20"
           style="fill:#030303;fill-opacity:1;fill-rule:evenodd;stroke:none"
           d="m 14806,13898.7 c 6.6,-31.2 16,-28.8 19.7,-88.8 2.3,-36.8 -0.6,-33.2 15.3,-57.1 93.8,-140.8 155.6,-228.6 341.3,-284.3 112.8,-33.9 461.1,-20.3 598.9,-18.8 103.4,1.1 77.9,-14.9 77.3,-119.4 -0.5,-95.3 -11.6,-1360.3 6.5,-1425.4 40.2,-144.8 275,-218.5 379.6,-56.9 1.1,1.8 2.6,4.2 3.8,6 1.1,1.8 2.7,4.2 3.8,6 1.1,1.7 2.7,4.1 3.8,5.9 l 27.4,48.4 c 14.6,46.9 6,1041.8 6,1102.3 0,360.3 10.6,867.9 0.2,1215.9 -2.1,70.2 -17.1,75.9 -42.3,112.8 l -31.4,47.8 c -2,2.1 -8.2,7.5 -10.4,9.4 -141.3,120 -337.8,-3.1 -345.5,-120.5 -4.2,-64.3 16.3,-366.8 -10.4,-393.2 -25.9,-25.4 -341.4,-8.7 -402.2,-8.7 -214.1,-0.1 -198.8,-9.2 -198.7,204.9 0.2,542.3 0,1084.7 0,1627 0,126.2 15.7,283.8 -33.5,375.5 -77.3,144 -286.5,148.4 -377.5,-0.5 -7.2,-11.8 -28,-70.1 -29.4,-76 l -2.3,-2112.3" /></g><g
         transform="scale(1.14065)"
         id="g22"><path
           id="path24"
           style="fill:#030303;fill-opacity:1;fill-rule:evenodd;stroke:none"
           d="m 8074.32,15914.4 4031.38,5.7 c 0.1,3.1 -2.6,-1 1.4,8 61,6.3 87.1,26.2 120.3,65.5 62.3,73.4 33.1,204.4 22.4,220 l -7.6,8.5 c -50.6,54.7 -123.4,77.9 -196.5,77.9 H 8056.79 c -73.84,0 -111.78,-10 -152.19,-51.8 -129.47,-133.8 -33.97,-333.8 169.72,-333.8" /></g><path
         id="path26"
         style="fill:#030303;fill-opacity:1;fill-rule:evenodd;stroke:none"
         d="m 13902.5,9990 c 0.1,-0.09 25.9,-59.3 27.1,-61.44 2.4,-4.39 30.9,-37.97 35.8,-43 23.1,-23.59 82.8,-56.01 107.2,-61.28 56.7,-12.24 1495.7,-3.89 1667.4,-3.89 56.6,0 113.8,-0.93 170.3,0.69 66.4,1.91 85.8,8.56 119.8,38.5 198.1,174.62 25.5,380.42 -83,402.92 l -997.1,2.1 c -251.6,0 -598.2,7.7 -840.6,0.3 -112.8,-3.5 -240.5,-144.4 -206.9,-274.9" /><g
         transform="scale(1.20165)"
         id="g28"><path
           id="path30"
           style="fill:#030303;fill-opacity:1;fill-rule:evenodd;stroke:none"
           d="m 15620.2,15111.9 h 457.7 c 68.9,0 115.6,8.7 158.9,50.1 30.2,28.9 55.9,72.2 58.6,116.9 4.6,74 -16.3,106.6 -50.3,142.2 -43.7,45.8 -68.9,51.5 -150.5,51.5 h -499.3 c -193.4,0 -266.1,-194.3 -134.8,-320 35.8,-34.3 97.3,-40.7 159.7,-40.7" /></g><g
         transform="scale(1.26605)"
         id="g32"><path
           id="path34"
           style="fill:#030303;fill-opacity:1;fill-rule:evenodd;stroke:none"
           d="m 7020.36,16065.8 c 15.78,-90.9 177.44,-149.4 268.26,-69.2 105.35,93 65.61,232.4 -6.73,279.3 -51.07,8.7 -44.68,24.1 -118.11,21.2 -39.46,-1.5 -64.15,-12.6 -88.21,-32.3 -65.39,-53.3 -59.33,-98.9 -55.21,-199" /></g><g
         transform="scale(1.29598)"
         id="g36"><path
           id="path38"
           style="fill:#fc6095;fill-opacity:1;fill-rule:evenodd;stroke:none"
           d="m 7470.21,15710.1 c -19.03,78.5 15.57,140.8 66.07,179.9 1.39,1.1 3.26,2.3 4.72,3.4 59.75,41.5 136.96,40.2 188.16,-0.8 41.3,-33 55.93,-47.4 70.73,-99.9 41.2,-146.1 -136.89,-262.6 -258.53,-179.6 -27.13,18.5 -62.3,60.4 -71.15,97 z m 932.64,138.2 c 4.02,-12.2 11.87,-22.2 15.51,-41.3 43.95,-21 15.56,-91.8 2.98,-125.3 -44.24,-117.7 -246.28,-151.9 -318.42,-16.5 -22.42,42.1 -35.05,90.8 -18.03,138.1 35.37,98 108.56,145.9 218.04,124.7 39.01,-7.5 87.04,-37.6 99.92,-79.7 z M 7113.7,15900 c 70.67,-45.8 109.49,-182 6.58,-272.9 -88.72,-78.3 -246.65,-21.2 -262.06,67.6 -67.09,34.6 -16.12,163.1 46.81,210.2 l 77.18,35.5 c 44.95,15.6 118.69,-8.3 131.49,-40.4 z m -959.71,391.8 c -28.91,-68.2 -15.93,-434.6 -15.93,-535.4 0,-98.8 -11.45,-481.6 7.17,-544.9 l 2938.52,0.1 c 10.09,39.8 12.46,1039.1 2.15,1088.4 l -2923.19,-1 -8.72,-7.2" /></g><path
         id="path40"
         style="fill:#fc6095;fill-opacity:1;fill-rule:evenodd;stroke:none"
         d="m 12065.2,12377.4 c 21.3,-41.4 71.6,-68.5 144.8,-68.3 44.9,0.2 62.1,0.5 91.9,19.9 20,13.1 37.5,26.3 38.1,48.1 15.8,60.9 27.5,47 27.5,132.8 0.2,240.1 10.3,808 -2.7,973.9 l -327.3,-3.4 c -13.6,-182.8 -2.1,-621.8 -2.1,-850.4 -0.1,-272 23.9,-145 29.8,-252.6" /><g
         transform="scale(1.0215)"
         id="g42"><path
           id="path44"
           style="fill:#010202;fill-opacity:1;fill-rule:evenodd;stroke:none"
           d="m 12080.3,12116.6 c -0.6,-21.4 -17.8,-34.2 -37.4,-47.1 -29.1,-19 -45.9,-19.3 -89.9,-19.4 -71.6,-0.3 -120.9,26.3 -141.7,66.8 -66.6,46.9 -46.7,127.2 -46.7,247.3 0,194.8 -12,736.9 5.2,859.4 54.3,10.2 198.1,4.5 271.5,5.1 143.8,1.2 98,11.7 98,-580.6 0,-94.7 0,-189.3 0,-283.9 0,-83.4 10.1,-123.9 -16.5,-195.5 -19.3,-51.8 1.9,-37.6 -42.5,-52.1 z m -2618.27,3725.2 17.53,23 c 155.48,16.8 2560.04,4.8 2835.64,4.8 781.3,0 704.8,58.6 704.8,-245.5 v -2848.8 c 0,-95.6 19.9,-393.8 -17.1,-452.9 -32.8,-52.4 -127.4,-35.7 -198.2,-35.7 -60.5,0 -191.9,-19.9 -232.6,11.2 l -11,75.6 c 1.5,192 14.4,1059.9 -13.2,1134.5 -15.4,41.6 -73.1,120 -144.6,135.9 -347.1,18.8 -720,7.8 -1076.8,7.8 -362.2,0 -724.4,-0.1 -1086.7,0 -183.9,0.1 -235.4,3.7 -304.71,-123 -48.66,-88.8 -38.31,-159.5 33.4,-231.9 1.35,-1.4 3.46,-3.4 4.81,-4.8 87.2,-88.2 99.3,-63.8 276.3,-63.8 l 1072.4,-6.7 c 40.1,-11.1 18.6,-690.4 19.4,-818.2 0.2,-22.9 4.2,-98.2 -11,-112.1 -25.1,-23 -1441.24,-7.5 -1697.5,-7.7 -158.42,-0.1 -197.34,-23 -196.81,149.2 l 2.35,3376.5 c 13.42,46.8 0.1,19.3 23.59,32.6 z m -448.72,-80.7 v -3377.3 c 0.03,-180.3 31.68,-276.1 165.07,-395.9 l 83.44,-55.2 c 26.67,-13.6 0.2,-3.3 37.63,-14.7 75.55,-22.8 -3.62,-15.4 135.78,-47.3 147.31,-33.7 1723.37,10.5 2038.07,-13 l 84.6,-94.1 c 34.3,-30.1 32.6,-13.7 59.6,-30.1 1.6,-0.9 3.9,-2.6 5.4,-3.6 l 48,-40.3 c 84,-52.3 187.1,-66.2 311.5,-64.8 147.8,1.8 303.5,66.3 396.1,167.2 50.7,55.4 37.2,65.4 132.2,64.5 l 459.6,1.4 c 41.6,7.3 15.4,14.1 69.7,21.5 148.2,20.3 233.7,86.5 315.5,198.2 61.5,84 101.1,207.8 101.1,325.7 v 3377.4 c 0,120.3 -56,243.2 -119.8,337.2 -6.5,9.6 -20.6,29.1 -29.4,38.8 -1.6,1.7 -23.9,23.5 -29.4,28.9 l -128.2,75.8 c -65.7,29.3 -155.5,38.6 -237.4,38.6 H 9525.21 c -87.08,0 -147.63,-13.8 -215.03,-40.6 -79.6,-31.7 -95.42,-51.7 -150.17,-114.4 -30.06,-34.4 -34.5,-23.4 -61.4,-65.8 -77.07,-121.5 -85.3,-178 -85.3,-318.1" /></g><g
         transform="scale(1.12585)"
         id="g46"><path
           id="path48"
           style="fill:#010202;fill-opacity:1;fill-rule:evenodd;stroke:none"
           d="m 15366.1,14184.9 c 0,90.3 18.2,106.1 106.7,106.1 h 346.4 c 81.9,0 106.4,-22.6 106.4,-106.1 v -3037.7 c 0,-43.5 -10.4,-72.4 -29.9,-103.1 l -431.8,-3.2 c -58.8,0 -97.8,12.7 -97.8,97.4 z m -345.4,231 -39.4,-120.3 c -16.4,-68.4 -5.5,-2418.9 -5.5,-2508.9 0,-223.1 -5.6,-453.2 -0.2,-675.4 2.6,-104.7 35.1,-188.6 80.1,-256.8 173.6,-262.5 428,-201.7 808,-200.8 83.2,0.2 191.3,33.2 263.2,80.4 32.2,21.1 136.1,124.9 140.5,180.2 -0.3,38.2 23,79.9 28.1,143.6 4.5,55.9 2.9,113.1 2.9,169.2 v 2966.7 c -1,196.3 -66.9,327.8 -235.6,420.9 l -61.3,27.9 c -69.1,28.4 -472.3,18.3 -555.4,17.7 -266.3,-1.9 -306.9,-112.1 -403.6,-223.7 l -21.8,-20.7" /></g><g
         transform="scale(1.23772)"
         id="g50"><path
           id="path52"
           style="fill:#010202;fill-opacity:1;fill-rule:evenodd;stroke:none"
           d="m 15040.2,11416.2 c 1.5,-5.5 7.4,-6.9 15.4,-28.4 4.2,-11.3 5.6,-19.8 9,-31.9 35.4,-123.3 170.8,-231.1 314.8,-265.3 56.3,-13.3 263,-4.6 335,-4.6 199.9,0 186.3,14.3 184.9,-65.2 l -0.4,-751.9 c 0,-86.7 -12.6,-417.84 18.1,-484.89 18.7,-40.82 43.7,-60.32 85.3,-76.21 27.5,-10.53 28,-18.91 67.2,-20.05 230.5,-6.68 184.6,279.89 184.6,395.35 0,181.9 6.8,1602 -2,1670.2 -21,163 -213.1,198.7 -297.5,109.4 -81.7,-86.4 -56,-225.6 -55.1,-366.5 0.3,-36.9 6.6,-47.8 -23.9,-54.6 -41.1,-9.2 -277.8,-0.4 -338.9,-0.5 -22,0 -69.7,-2.5 -88.8,0.7 -39,6.4 -8.2,-2.5 -27.5,12.2 -47.3,35.8 -27.5,101.4 -27.5,172.3 0,444.3 0,888.7 0,1333.1 0,105.3 15.9,234.5 -29.3,311.4 -37.5,63.9 -146.2,103.5 -236,57 -101.2,-52.3 -89.9,-140.9 -89.8,-247.3 0,-219.5 -8.5,-1624.2 2.4,-1664.3" /></g><g
         transform="scale(1.0607)"
         id="g54"><path
           id="path56"
           style="fill:#010202;fill-opacity:1;fill-rule:evenodd;stroke:none"
           d="m 12023.6,10021.7 c 3.8,-21.2 38,-78.36 53.4,-94.13 86.3,-88.47 256.3,-59.16 377.1,-59.16 h 3507.1 c 124.9,-0.03 168.6,-13.89 244.8,49.6 43.7,36.33 94,121.39 64.5,213.89 -22.8,71.3 -85,129 -144,146.7 -43.8,13.2 -3424.9,4.3 -3795,4.4 -113.4,0 -165.2,5.8 -237.2,-52.5 -55.8,-45.2 -88.4,-110.1 -70.7,-208.8" /></g><path
         id="path58"
         style="fill:#010202;fill-opacity:1;fill-rule:evenodd;stroke:none"
         d="m 12038,14910 c -45.6,-73.4 -275.1,-237 -95.3,-407.4 58.7,-55.7 131.5,-83 235.6,-52.1 68.9,20.4 110.9,101.3 181.7,138.3 85.7,-69.6 41.9,-20.1 107,-91.3 l 14.4,-15.7 c 47.7,-46.3 120,-53 184.3,-39 128,27.8 197.1,169.5 148.8,292.6 -17.5,44.5 -73.8,96.7 -100.7,129 -55.6,66.7 11.6,89.1 51.2,130.3 l 21.8,27.5 c 160.3,211.8 -108.1,500.8 -340.7,291.5 -57.6,-51.8 -70.5,-115.4 -138.3,-46 -86.4,88.5 -197,159.5 -327.1,81.4 -42.2,-25.3 -78.9,-83.1 -95.5,-134.2 -38.3,-118.3 50.1,-182.3 72.2,-207 6.2,-6.9 3.9,-5.2 12.4,-16.5 l 68.2,-81.4" /><path
         id="path60"
         style="fill:#010202;fill-opacity:1;fill-rule:evenodd;stroke:none"
         d="m 10261.6,14910 c -7,-26.4 -12.5,-31.1 -25.5,-46.6 -62.3,-74.5 -145.5,-107.1 -118,-263.5 17.3,-98.4 188.2,-288.3 408.4,-66.8 52.1,52.5 77.9,45.5 151.3,-25.2 107.4,-103.4 264.8,-108.5 345.3,30.5 10.2,17.6 23.6,37.9 28,49.4 57.2,150.9 -90.9,239.9 -141.9,312.2 13.2,61.8 99.7,108.2 130.3,170.3 29.6,60.2 27.1,181.1 -46.7,243.5 l -18.1,12.9 c -77.8,53.7 -113.1,68.9 -209.2,38.9 -110.3,-34.4 -125,-128.3 -184.8,-126.5 -58.4,1.7 -72.8,92.5 -179,124.8 -103.2,31.3 -180.2,22.9 -263.9,-81.7 -40.9,-51.2 -32.2,-166.5 -15.2,-200.9 13.3,-27.1 39.1,-66.9 60.3,-88.2 28.9,-29 59.3,-51.6 78.7,-83.1" /><g
         transform="scale(1.1411)"
         id="g62"><path
           id="path64"
           style="fill:#010202;fill-opacity:1;fill-rule:evenodd;stroke:none"
           d="m 15143.2,15913.8 h 490.8 c 76.7,0 102.7,8.9 154.6,46.8 l 41,48.7 c 22.3,37.2 27.3,81.8 20.3,134.3 -2.2,16.3 0,8.9 -5.7,23.6 l -42.9,81.2 c -16.2,19.4 1.4,2.7 -23,20.3 -12.9,9.4 -21.5,14.1 -33.5,17.4 -49.3,13.9 -538.6,7.4 -619.1,7.4 -127.9,0 -207,-51.9 -205.3,-195.3 1.5,-126.5 107.1,-184.4 222.8,-184.4" /></g><g
         transform="scale(1.26696)"
         id="g66"><path
           id="path68"
           style="fill:#010202;fill-opacity:1;fill-rule:evenodd;stroke:none"
           d="m 7641.34,16070 c 9.06,-37.4 45.04,-80.3 72.79,-99.2 124.43,-84.9 306.59,34.3 264.45,183.7 -15.14,53.7 -30.11,68.4 -72.34,102.2 -52.38,41.9 -131.37,43.3 -192.48,0.8 -1.49,-1.1 -3.4,-2.4 -4.83,-3.5 -51.66,-39.9 -87.05,-103.7 -67.59,-184" /></g><g
         transform="scale(1.38098)"
         id="g70"><path
           id="path72"
           style="fill:#000000;fill-opacity:1;fill-rule:evenodd;stroke:none"
           d="m 5775.22,15289.1 8.17,6.7 c 13.74,17.1 -4.81,2.7 17.49,11.9 22.56,9.2 298.03,3.9 325.2,3.9 770.63,0 1572.23,-7.9 2338.99,0.2 39.01,0.4 58.9,4.1 71.58,-13.1 9.04,-18.3 12.13,-955.7 1.86,-1034.7 -42.32,-10.7 -2733.24,-12.8 -2783.55,-0.9 -16.32,79.3 -5.23,731.9 -5.53,914.5 -0.14,86.6 -11.5,103.6 25.79,111.5 z M 16300,15170.6 V 11824.9 8832.11 c -1.2,-87.67 -2.7,-140.12 -4.6,-145.31 -35.5,-96.69 -109.4,-87.34 -133,-107.86 -45.9,21.57 -68.1,8.44 -112.3,41.66 -12.6,9.44 -29.6,28.27 -38.1,42.09 -11.9,19.08 -9.3,38.55 -19.8,43.93 -13.3,117.71 -5.4,267.11 -5.4,388.36 v 4583.72 c 0,325.8 24.6,288.8 -92.3,288.2 -253.3,-1.2 -506.9,0.6 -760.3,0.6 H 5974.01 c -259.46,0 -223.23,42 -223.23,-158.5 0.01,-2417.4 5.94,-4839.42 -0.02,-7255.69 -0.37,-148.94 -5.21,-126.32 259.46,-126.32 l 948.63,0.09 c 126.08,0.15 93.11,-25.57 152.56,-37.93 14.45,-13.28 29.77,-37.14 37.86,-58.8 9.52,-25.51 4.48,-46.41 19.54,-68.7 -8.34,-24.6 -2.78,-33.37 -13.71,-56.88 -59.52,-128.13 -185.08,-93.18 -341.11,-93.18 -122.89,0 -1068.7,-9.78 -1107.64,7.51 -131.18,58.23 -188.9,81.98 -259.12,247.76 -4.41,10.41 -7.28,32.19 -9.07,60.12 v 292.88 c 0,2847.22 8.14,5702.14 0,8548.14 v 67.6 c 0.99,7.8 2.75,15.7 5.76,24.5 l 28.88,65.3 c 6.58,12.9 2.91,7 9.88,19.1 l 103.18,114 c 0.47,0.4 15.73,11.9 16.53,12.5 l 33.98,16.7 c 1.99,0.9 7.39,4.1 9.33,5.1 20.24,10.7 0.82,3 19.33,9.6 120.3,43.5 146.85,24.2 280.02,24.2 H 9536.7 c 67.28,0 123.08,10.1 179.39,-66.8 22.37,-30.6 28.47,-67.6 37.84,-81.9 l -6.12,-12.5 c -11.51,-37.5 -9.93,-96.7 -88.89,-144.1 -114,-24.1 -43.7,-17.4 -187.4,-17.4 -155.17,0 -503.08,8.5 -617.03,-2 -16.15,-138.2 -2.53,-367.4 -2.53,-515.3 0,-76.9 -13.03,-471.5 7.51,-506.9 9.92,-6.4 3.18,-4.1 18.77,-7.6 34.41,-7.6 7095.46,-0.5 7096.56,-0.5 15.7,61.3 7,748 7,869.8 0,193.3 20.5,161 -282.8,161 l -5300.6,1.5 c -122.5,0 -268,-24.3 -277.9,161.1 l -21,11.6 3.8,5.1 c 2.6,22.9 18.8,55.4 32.1,74.7 62.3,90.7 125.1,70.2 248.5,70.2 H 15880 c 165.5,0 81.3,11.2 187.6,-22.4 l 72,-36.7 c 37.5,-23.8 58.3,-51.3 85.1,-81.4 l 28.1,-37.1 c 0.8,-1.3 1.9,-3.1 2.7,-4.5 6.4,-11.1 3.2,-5.9 7.5,-14.3 1,-1.9 3.8,-7.6 4.8,-9.6 l 27.5,-66.7 c 2,-6.2 3.5,-72.7 4.7,-183.3" /></g><g
         transform="scale(1.38098)"
         id="g74"><path
           id="path76"
           style="fill:#000000;fill-opacity:1;fill-rule:evenodd;stroke:none"
           d="m 15930.7,6437.08 c -170,-8.28 -363.1,-1.57 -535.9,-1.56 H 7892.94 c -69.93,0 -201.84,14.8 -255.62,-10.94 -33.94,-16.24 -56.65,-29.29 -75.1,-61.31 -17.48,-30.34 -19.89,-75.63 -31.34,-96.48 0,-67.79 27.73,-103.59 82.99,-137.37 43.74,-26.74 52.93,-17.99 112.51,-17.83 2674.02,6.85 5355.82,0 8030.52,0 57.9,0 115.9,0.08 173.8,0 82.1,-0.11 63.3,-7.93 115.2,15.12 l 10.4,4.11 c 1.7,0.64 3.8,1.09 5.5,1.69 8.3,2.78 7,1.41 16.7,5.1 81.6,31.12 150.9,103.34 189.2,180.06 l 31.4,77.25 0.9,1038.94 v 674.53 c -1.3,17.56 -4.3,22.37 -15,37.5 -6.8,9.68 0,1.02 -9.7,12.04 l -33,32.09 c -28.4,23.3 -44.7,29 -85,36.01 -17.3,-13.25 -27.8,-6.46 -50.1,-11.14 -150.8,-31.57 -125.6,-208.3 -125.6,-314.71 V 6640.2 c 0,-96.7 19.1,-200.98 -50.9,-203.12" /></g><g
         transform="scale(1.14075)"
         id="g78"><path
           id="path80"
           style="fill:#000000;fill-opacity:1;fill-rule:evenodd;stroke:none"
           d="m 13627.4,16164.8 c -1.9,-100.9 2.6,-144.1 90.2,-211.1 45.3,-34.6 207.6,-20.7 273.3,-20.7 96.4,0 192.8,0 289.2,0 106.6,-0.1 167.9,-12.6 232.4,60.8 74.6,84.7 77.5,298.1 -179.6,298.7 -187.9,0.4 -393.9,7.5 -579.6,-4.9 -32.7,3.5 -59.2,-19.3 -81.1,-40.8 -20.8,-20.5 -36.8,-44.4 -44.8,-82" /></g><g
         transform="scale(1.26605)"
         id="g82"><path
           id="path84"
           style="fill:#000000;fill-opacity:1;fill-rule:evenodd;stroke:none"
           d="m 8617.36,16180.7 c -3.72,19.5 -11.77,29.8 -15.88,42.2 l -13.3,7.9 c -0.4,0.3 -14.51,11 -15.58,11.9 -35.86,30.9 -90.01,57.3 -144.29,50.5 -19.82,-2.4 -40.24,-11.1 -56.56,-22.9 -26.77,-19.3 -61.15,-41 -73.9,-80.9 -63.82,-199.5 191.87,-313.6 299.04,-143.6 26.18,41.5 20.84,75.9 20.47,134.9" /></g><g
         transform="scale(1.3497)"
         id="g86"><path
           id="path88"
           style="fill:#e1f2fe;fill-opacity:1;fill-rule:evenodd;stroke:none"
           d="m 10300.5,7401.67 c -24.9,96.68 69.7,201.09 153.2,203.65 179.7,5.49 436.5,-0.17 622.9,-0.17 l 738.7,-1.61 c 80.4,-16.64 208.3,-169.13 61.5,-298.5 -25.1,-22.18 -39.5,-27.11 -88.7,-28.53 -41.9,-1.2 -84.3,-0.51 -126.2,-0.51 -127.2,0 -1193.4,-6.19 -1235.4,2.88 -18.1,3.91 -62.3,27.93 -79.4,45.41 -3.6,3.72 -24.8,28.6 -26.6,31.85 -0.8,1.59 -20,45.46 -20,45.53 z m -851.39,474.18 c -13.91,77.55 11.71,128.54 55.58,164.1 56.55,45.83 97.28,41.25 186.38,41.22 290.82,-0.08 2948.03,6.94 2982.33,-3.41 46.5,-13.97 95.4,-59.29 113.2,-115.33 23.2,-72.66 -16.3,-139.52 -50.6,-168.07 -59.9,-49.89 -94.3,-39 -192.4,-38.98 l -2756.21,0.01 c -94.88,0 -228.46,-23.04 -296.3,46.48 -12.09,12.4 -39,57.33 -41.98,73.98 z M 12529.5,12025 c 4.7,37.4 35.1,72 54.1,93.1 73.7,81.9 170.9,130.4 293,132.9 169.5,3.4 390.6,21.3 523.8,-42.2 107.5,-51.2 129,-107.6 180.7,-184.2 27.3,-40.3 35.1,-119 36.1,-162.3 4.3,-183.2 0,-372.2 0,-556.1 V 9335.43 c 0,-64.37 1.9,-183.16 -47.8,-231.32 -3.6,-46.09 -90.4,-132.71 -117.2,-150.33 -59.9,-39.32 -150.1,-66.86 -219.5,-67.02 -317,-0.75 -529.2,-51.47 -674,167.51 -37.6,56.84 -64.7,126.84 -66.8,214.21 -4.6,185.32 0.1,377.29 0.1,563.36 0,75.1 -9,2035.66 4.6,2092.76 z m -5707.9,-96.4 c 0,106 6.23,148.8 64.57,240.7 20.35,32.1 23.71,23.8 46.46,49.8 41.44,47.5 53.42,62.6 113.65,86.6 51.01,20.3 96.84,30.7 162.75,30.7 h 2563.54 c 61.98,0 129.94,-7 179.7,-29.1 l 97.03,-57.5 c 4.1,-4 21,-20.5 22.2,-21.8 6.7,-7.4 17.4,-22.1 22.3,-29.4 48.3,-71.1 90.6,-164.2 90.6,-255.2 V 9387.3 c 0,-89.22 -29.9,-182.95 -76.5,-246.51 -61.9,-84.55 -126.6,-134.65 -238.78,-149.99 -41.07,-5.62 -21.24,-10.76 -52.74,-16.27 l -347.82,-1.06 c -71.89,0.65 -61.71,-6.96 -100.08,-48.81 -70.02,-76.39 -187.92,-125.25 -299.77,-126.57 -94.13,-1.11 -172.15,9.46 -235.72,49.04 l -36.38,30.46 c -1.11,0.79 -2.84,2.07 -4.02,2.78 -20.49,12.39 -19.2,-0.02 -45.18,22.76 l -63.97,71.24 c -238.24,17.75 -1431.02,-15.72 -1542.51,9.81 -105.5,24.16 -45.58,18.56 -102.76,35.84 -28.33,8.55 -8.29,0.83 -28.48,11.11 l -63.16,41.79 c -100.95,90.64 -124.9,163.12 -124.93,299.56 z M 13792.3,10469 c -9.9,36.8 -2.1,1324.9 -2.2,1526.3 0,97.5 -10.4,178.7 82.4,226.7 82.3,42.6 182,6.3 216.4,-52.3 41.5,-70.5 26.9,-188.9 26.9,-285.5 0,-407.5 0,-815 0,-1222.5 0,-65 -18.2,-125.2 25.2,-158 17.7,-13.5 -10.6,-5.3 25.2,-11.2 17.5,-2.9 61.3,-0.7 81.4,-0.6 56.1,0.1 273.1,-8 310.9,0.4 27.9,6.2 22.1,16.2 21.9,50.1 -0.8,129.2 -24.4,256.9 50.5,336.1 77.4,81.8 253.6,49.1 272.8,-100.4 8.1,-62.5 1.8,-1364.75 1.8,-1531.57 0,-105.88 42.1,-368.67 -169.2,-362.55 -36,1.05 -36.4,8.74 -61.7,18.39 -38.2,14.57 -61,32.46 -78.2,69.89 -28.2,61.49 -16.6,365.13 -16.6,444.67 l 0.4,689.47 c 1.2,72.9 13.7,59.8 -169.5,59.8 -66.1,0 -255.6,-8 -307.3,4.3 -132.1,31.3 -256.2,130.1 -288.6,243.3 -3.2,11 -4.5,18.8 -8.3,29.2 -7.3,19.7 -12.8,21 -14.2,26 z m -2600.4,37.1 1.7,1596.6 c 1.1,4.5 16.8,48.5 22.2,57.5 68.8,112.5 227,109.2 285.4,0.3 37.2,-69.2 25.3,-188.4 25.3,-283.8 0,-409.9 0.1,-819.9 0,-1229.9 -0.1,-161.7 -11.6,-154.9 150.2,-154.9 46,0.1 284.5,-12.5 304,6.7 20.2,19.9 4.7,248.6 7.9,297.2 5.8,88.8 154.4,181.8 261.2,91 1.6,-1.4 6.3,-5.4 7.8,-7 l 23.8,-36.2 c 19,-27.9 30.4,-32.2 31.9,-85.2 7.9,-263.1 -0.1,-646.8 -0.1,-919.15 0,-45.75 6.5,-797.75 -4.6,-833.24 l -20.7,-36.6 c -0.8,-1.31 -2,-3.14 -2.9,-4.46 -0.8,-1.33 -2,-3.16 -2.8,-4.5 -0.9,-1.34 -2,-3.2 -2.9,-4.55 -79,-122.1 -256.6,-66.45 -286.9,42.99 -13.7,49.27 -5.3,1005.51 -4.9,1077.51 0.4,79 19.7,91.1 -58.4,90.2 -104.2,-1.1 -367.5,-11.3 -452.8,14.2 -140.4,42.1 -187,108.5 -258,215 -12,18 -9.8,15.3 -11.5,43.1 -2.8,45.3 -9.9,43.6 -14.9,67.2 z m 1611,2948.2 c -97.9,0 -187.2,49 -188.4,156 -1.5,121.2 65.4,165.1 173.6,165.1 68,0 481.7,5.5 523.4,-6.3 10.1,-2.8 17.4,-6.8 28.3,-14.7 20.6,-14.9 5.7,-0.8 19.4,-17.2 l 36.3,-68.6 c 4.8,-12.4 3,-6.2 4.8,-19.9 6,-44.5 1.8,-82.2 -17.2,-113.6 l -34.6,-41.2 c -43.9,-32 -65.8,-39.6 -130.7,-39.6 z m -1285.2,208 c 6.8,31.7 20.2,51.9 37.9,69.3 18.4,18.2 40.9,37.5 68.5,34.5 l 8.1,24 c 154.9,9.7 354.7,5.7 511.9,2.2 70.7,-1.5 126.1,-41.3 155.7,-100.2 37.2,-74.1 15.6,-146.4 -29,-194.4 -77.4,-83.3 -325.9,-53.7 -460.7,-53.7 -82,0 -170.4,-9.6 -232.6,30.6 -73.7,47.7 -89.1,141.8 -59.8,187.7 z m 3485.7,-212.8 c -165.4,0 -227.6,127.5 -179.4,236.4 l 22.3,45.5 c 16.3,21.6 41.4,33.6 67.8,40.4 102.4,26.4 389.4,13.4 511.6,13.4 104.2,0 185.9,-79.9 181.6,-174.8 -1,-21.9 -10.5,-52.7 -20.6,-71.2 -7.8,-14.4 -27.1,-40.4 -40.1,-49.8 -35.9,-26.2 -75.6,-39.9 -128.3,-39.9 z m -1096.6,4.8 c -55.5,0 -110.3,5.7 -142.2,36.2 -116.9,111.9 -52.1,284.9 120,284.9 h 444.6 c 72.6,0 95,-5.1 134,-45.8 30.3,-31.7 48.8,-60.8 44.8,-126.7 -2.5,-39.8 -25.4,-78.3 -52.2,-104 -38.6,-36.9 -80.2,-44.6 -141.5,-44.6 z m -7083.04,-4.8 c -172.15,0 -252.85,169.1 -143.44,282.2 34.15,35.3 66.22,43.7 128.62,43.7 h 3371.16 c 61.7,0 123.3,-19.6 166,-65.8 l 6.4,-7.2 c 9.1,-13.2 33.8,-123.9 -18.9,-185.9 -28.1,-33.2 -50.1,-50.1 -101.7,-55.4 -3.3,-7.6 -1.1,-4.1 -1.1,-6.7 z m 452.49,-6912.26 c 14.79,-13.58 30.46,-37.99 38.74,-60.15 9.74,-26.1 4.59,-47.49 19.99,-70.3 l 81.45,2.09 c 69.06,-0.14 242.13,-4.69 289.01,3.17 11.72,21.34 14.18,67.68 32.07,98.72 18.87,32.76 42.11,46.11 76.84,62.73 55.02,26.33 189.99,11.19 261.54,11.19 h 7675.81 c 176.7,-0.01 374.3,-6.87 548.3,1.6 l -434.7,0.42 c 17.8,130.51 6.8,1735.22 6.8,1911.5 v 5759.29 l -9975.79,-2.1 c -10.84,-62.4 -1.64,-6962.06 -2.14,-7520.55 -0.13,-148.41 -2.19,-145.69 144.23,-145.55 h 1141.46 c 35.46,-0.2 39.09,3.52 62.78,-13.27 36.18,-25.66 25.22,-11.31 33.61,-38.79" /></g><g
         transform="scale(1.31514)"
         id="g90"><path
           id="path92"
           style="fill:#618baa;fill-opacity:1;fill-rule:evenodd;stroke:none"
           d="m 10242.3,16252.8 -6.4,-13.1 c -12.1,-39.4 -10.5,-101.6 -93.4,-151.3 -6.9,-24.6 5.2,-24.9 -37.2,-30.2 l -796.99,-1.8 v -1050.1 l 6980.59,3.8 c 0,130.5 11.1,996.6 -6.9,1041.5 -79.8,15.1 -274.9,4.8 -367.3,4.8 h -4767.6 c -119.9,0 -245.9,-3.7 -365.1,0.4 -63.5,2.1 -94.3,20.7 -129.6,56.3 -55,55.5 -45.5,99.8 -47.2,138.3 l 4,5.5 c -34.7,-14.6 -312.8,-13.9 -366.9,-4.1" /></g><path
         id="path94"
         style="fill:#32deb6;fill-opacity:1;fill-rule:evenodd;stroke:none"
         d="m 10122.6,15081.3 c -17,34.4 -25.7,149.7 15.2,200.9 83.7,104.6 160.7,113 263.9,81.7 106.2,-32.3 120.6,-123.1 179,-124.8 59.8,-1.8 74.5,92.1 184.8,126.5 96.1,30 131.4,14.8 209.2,-38.9 l 18.1,-12.9 c 73.8,-62.4 76.3,-183.3 46.7,-243.5 -30.6,-62.1 -117.1,-108.5 -130.3,-170.3 51,-72.3 199.1,-161.3 141.9,-312.2 -4.4,-11.5 -17.8,-31.8 -28,-49.4 -80.5,-139 -237.9,-133.9 -345.3,-30.5 -73.4,70.7 -99.2,77.7 -151.3,25.2 -220.2,-221.5 -391.1,-31.6 -408.4,66.8 -27.5,156.4 55.7,189 118,263.5 13,15.5 18.5,20.2 25.5,46.6 -19.4,31.5 -49.8,54.1 -78.7,83.1 -21.2,21.3 -47,61.1 -60.3,88.2 z m 1847.2,-89.9 c -8.5,11.3 -6.2,9.6 -12.4,16.5 -22.1,24.7 -110.5,88.7 -72.2,207 16.6,51.1 53.3,108.9 95.5,134.2 130.1,78.1 240.7,7.1 327.1,-81.4 67.8,-69.4 80.7,-5.8 138.3,46 232.6,209.3 501,-79.7 340.7,-291.5 l -21.8,-27.5 c -39.6,-41.2 -106.8,-63.6 -51.2,-130.3 26.9,-32.3 83.2,-84.5 100.7,-129 48.3,-123.1 -20.8,-264.8 -148.8,-292.6 -64.3,-14 -136.6,-7.3 -184.3,39 l -14.4,15.7 c -65.1,71.2 -21.3,21.7 -107,91.3 -70.8,-37 -112.8,-117.9 -181.7,-138.3 -104.1,-30.9 -176.9,-3.6 -235.6,52.1 -179.8,170.4 49.7,334 95.3,407.4 z m -2304.34,1191 c -21.14,-178.8 -7.59,-2759.7 -7.59,-3142.4 0,-116.5 -12.02,-346.6 6.22,-445.9 112.49,-42.8 326.31,-19.9 465.91,-19.9 425,0 1057.4,-17 1436.6,1.7 l 2.3,905.7 c -289,15.2 -1159.4,-9.9 -1268.6,3.4 l -50.9,16.6 c -186.3,80.2 -203.6,282.9 -79,398.3 61.7,57 133.3,67.3 229.6,67.1 h 2130 c 22.3,0 49.3,1.5 70.9,0.7 78.4,-2.6 63.5,-15.4 69,-30.5 73.1,-16.2 132,-96.3 147.8,-138.8 28.2,-76.2 14.9,-962.8 13.4,-1158.9 l 11.2,-77.2 c 41.7,-31.8 175.9,-11.4 237.7,-11.5 72.4,0 168.9,-17 202.5,36.5 37.8,60.4 17.4,365 17.4,462.7 v 2910 c 0,310.7 78.2,250.8 -719.9,250.8 -281.6,0 -2737.81,12.3 -2896.63,-5 l -17.91,-23.4" /><g
         transform="scale(1.36933)"
         id="g96"><path
           id="path98"
           style="fill:#bddff4;fill-opacity:1;fill-rule:evenodd;stroke:none"
           d="m 16066.3,6491.88 c 70.6,2.16 51.4,107.32 51.4,204.85 v 1270.7 c 0,107.32 -25.4,285.55 126.6,317.39 22.5,4.72 33.1,-2.13 50.6,11.24 -8.4,44.64 -9.3,330.43 5.1,355.91 -46.3,21.75 -68.7,8.51 -113.3,42.01 -12.7,9.52 -29.8,28.52 -38.4,42.45 -12,19.24 -9.4,38.88 -20,44.3 -32.2,21.82 -16.9,294.2 -16.9,325.95 0,508.58 9.8,4886.42 -3.2,4957.52 l -10134.45,1.9 c -26.75,0 -53.63,-0.2 -80.36,0.1 -9.71,0.1 -36.85,1.7 -44.22,1 -50.54,-4.4 -22.44,4.4 -37.39,-16.2 l 9832.82,2.1 V 8376.39 c 0,-173.76 10.8,-1755.46 -6.7,-1884.1 l 428.4,-0.41" /></g><g
         transform="scale(1.09999)"
         id="g100"><path
           id="path102"
           style="fill:#e0f0fb;fill-opacity:1;fill-rule:evenodd;stroke:none"
           d="m 15727.3,14518.3 v -3118.2 c 0,-86.7 39.9,-99.6 100.1,-99.6 l 442,3.2 c 19.9,31.4 30.6,61.1 30.6,105.5 v 3109.1 c 0,85.5 -25.2,108.7 -108.9,108.7 h -354.6 c -90.5,0 -109.2,-16.2 -109.2,-108.7" /></g><g
         transform="scale(1.35576)"
         id="g104"><path
           id="path106"
           style="fill:#4f748f;fill-opacity:1;fill-rule:evenodd;stroke:none"
           d="m 9838.63,15606.3 c -116.11,-24.5 -44.51,-17.6 -190.88,-17.6 -158.06,0 -512.44,8.6 -628.51,-2.1 -16.45,-140.7 -2.58,-374.2 -2.58,-524.9 0,-78.3 -13.27,-480.2 7.65,-516.3 10.1,-6.5 3.24,-4.2 19.12,-7.7 35.05,-7.8 7227.47,-0.6 7228.67,-0.6 15.9,62.5 7,761.9 7,886 0,197 20.9,164 -288,164 l -5399.2,1.6 c -124.8,0 -273,-24.9 -283.1,164 l -21.4,11.8 c 1.7,-37.3 -7.5,-80.3 45.9,-134.1 34.2,-34.5 64,-52.6 125.6,-54.7 115.7,-4 237.9,-0.4 354.3,-0.4 h 4624.7 c 89.7,0 278.9,10.1 356.3,-4.7 17.4,-43.5 6.7,-883.6 6.7,-1010.2 l -6771.47,-3.7 v 1018.6 l 773.1,1.8 c 41.15,5.1 29.41,5.4 36.1,29.2" /></g><g
         transform="scale(1.35653)"
         id="g108"><path
           id="path110"
           style="fill:#62696e;fill-opacity:1;fill-rule:evenodd;stroke:none"
           d="m 7239.59,6504.31 c -8.35,27.34 2.56,13.06 -33.45,38.58 -23.57,16.72 -27.18,13.01 -62.46,13.21 H 6007.97 c -145.67,-0.14 -143.63,-2.84 -143.5,144.82 0.5,555.67 -8.66,7420.48 2.13,7482.58 15.08,20.8 -13.29,11.9 37.73,16.4 7.45,0.7 34.84,-0.9 44.64,-1 26.98,-0.4 54.12,-0.1 81.12,-0.1 l 10230.01,-1.9 c 13.2,-71.8 3.3,-4490.95 3.3,-5004.34 0,-32.05 -15.5,-306.99 17,-329.01 -13.5,119.83 -5.4,271.93 -5.4,395.36 v 4666.29 c 0,331.7 25,294 -94,293.5 -257.9,-1.3 -516.1,0.5 -774.1,0.5 H 6081.69 c -264.14,0 -227.26,42.8 -227.26,-161.3 0.01,-2461 6.05,-4926.65 -0.02,-7386.47 -0.38,-151.63 -5.3,-128.6 264.14,-128.6 l 965.72,0.09 c 128.37,0.16 94.8,-26.02 155.32,-38.61" /></g><g
         transform="scale(1.2927)"
         id="g112"><path
           id="path114"
           style="fill:#050505;fill-opacity:1;fill-rule:evenodd;stroke:none"
           d="m 15664.9,14042.5 h 433.2 c 55,0 96.5,14.3 134,41.7 13.5,9.8 33.8,36.9 41.9,51.9 10.5,19.4 20.5,51.6 21.5,74.4 4.5,99.1 -80.9,182.5 -189.6,182.5 -127.7,0 -427.3,13.7 -534.2,-14 -27.6,-7.1 -53.7,-19.5 -70.7,-42.2 l -23.4,-47.5 c -50.2,-113.7 14.7,-246.8 187.3,-246.8" /></g><path
         id="path116"
         style="fill:#25a486;fill-opacity:1;fill-rule:evenodd;stroke:none"
         d="m 12669.9,13937.2 c -5.5,15.1 9.4,27.9 -69,30.5 -21.6,0.8 -48.6,-0.7 -70.9,-0.7 h -2130 c -96.3,0.2 -167.9,-10.1 -229.6,-67.1 -124.6,-115.4 -107.3,-318.1 79,-398.3 l 50.9,-16.6 c 109.2,-13.3 979.6,11.8 1268.6,-3.4 l -2.3,-905.7 c -379.2,-18.7 -1011.6,-1.7 -1436.6,-1.7 -139.6,0 -353.42,-22.9 -465.91,19.9 -18.24,99.3 -6.22,329.4 -6.22,445.9 0,382.7 -13.55,2963.6 7.59,3142.4 -24,-13.6 -10.39,14.5 -24.1,-33.3 l -2.4,-3449.1 c -0.54,-175.9 39.22,-152.5 201.04,-152.4 261.8,0.2 1708.4,-15.6 1734,7.8 15.5,14.2 11.4,91.1 11.3,114.6 -0.9,130.5 21.1,824.4 -19.9,835.8 l -1095.4,6.8 c -180.9,0 -193.2,-24.9 -282.3,65.2 -1.4,1.4 -3.5,3.4 -4.9,4.8 -73.2,74.1 -83.8,146.3 -34.1,237 70.8,129.3 123.4,125.7 311.3,125.6 370,-0.1 740,0 1110,0 364.5,0 745.4,11.3 1099.9,-8" /><g
         transform="scale(1.29769)"
         id="g118"><path
           id="path120"
           style="fill:#592234;fill-opacity:1;fill-rule:evenodd;stroke:none"
           d="m 6145.88,16270.3 c -39.69,-8.4 -27.59,-26.5 -27.44,-118.6 0.32,-194.3 -11.49,-888.8 5.88,-973.2 53.53,-12.7 2917.17,-10.4 2962.2,0.9 10.93,84.1 7.64,1081.7 -1.98,1101.2 -13.49,18.3 -34.65,14.4 -76.17,13.9 -815.97,-8.6 -1669.02,-0.2 -2489.11,-0.2 -28.92,0 -322.07,5.7 -346.08,-4.2 -23.72,-9.7 -3.98,5.6 -18.6,-12.6 l 2919.34,1 c 10.3,-49.3 7.93,-1047.2 -2.15,-1087 H 6137.13 c -18.6,63.1 -7.17,445.4 -7.17,544.1 0,100.7 -12.96,466.6 15.92,534.7" /></g><g
         transform="scale(1.12791)"
         id="g122"><path
           id="path124"
           style="fill:#5b6266;fill-opacity:1;fill-rule:evenodd;stroke:none"
           d="m 14993.2,14389.5 21.7,20.7 c 96.6,111.3 137.1,221.3 403,223.3 82.8,0.6 485.3,10.7 554.3,-17.7 l 61.2,-27.8 c 168.4,-93 234.2,-224.3 235.2,-420.2 v -2961.2 c 0,-56 1.6,-113.2 -2.9,-168.9 -5.1,-63.6 -28.4,-105.3 -28,-143.4 59.4,57.6 57.1,199.8 57.1,276.8 v 2358.4 c 0,219.9 5.2,446.1 0,665.3 -1.2,51.9 -10.6,146 -43.1,194.2 -62,91.7 -87.7,159.3 -216.3,220.5 -159.3,75.9 -424,54.6 -626.8,50.5 -146.1,-3 -262.4,-61 -350.6,-159.1 -22.7,-25.2 -59.1,-66.6 -64.8,-111.4" /></g><g
         transform="scale(1.14267)"
         id="g126"><path
           id="path128"
           style="fill:#747c82;fill-opacity:1;fill-rule:evenodd;stroke:none"
           d="m 13730.1,16260.2 c 185.4,12.3 391,5.2 578.6,4.8 256.7,-0.6 253.8,-213.6 179.4,-298.2 -64.5,-73.3 -125.7,-60.8 -232.1,-60.7 -96.2,0 -192.5,0 -288.7,0 -65.6,0 -227.7,-13.9 -272.9,20.7 -87.4,66.9 -91.8,110 -89.9,210.8 -34.7,-54.3 -16.5,-165.4 70.5,-221.7 73.5,-47.6 177.9,-36.1 274.7,-36.1 159.3,0 452.9,-35.1 544.3,63.3 52.6,56.7 78.2,142.1 34.2,229.6 -34.9,69.7 -100.3,116.6 -183.9,118.5 -185.7,4 -421.7,8.8 -604.6,-2.6 l -9.6,-28.4" /></g><path
         id="path130"
         style="fill:#b8466d;fill-opacity:1;fill-rule:evenodd;stroke:none"
         d="m 12065.2,12377.4 c -5.9,107.6 -29.9,-19.4 -29.8,252.6 0,228.6 -11.5,667.6 2.1,850.4 l 327.3,3.4 c 13,-165.9 2.9,-733.8 2.7,-973.9 0,-85.8 -11.7,-71.9 -27.5,-132.8 45.4,14.8 23.7,0.3 43.4,53.2 27.3,73.2 16.9,114.6 16.9,199.7 0,96.7 0,193.3 0,290 0,605 46.7,594.4 -100.1,593.1 -74.9,-0.6 -221.9,5.3 -277.4,-5.2 -17.6,-125.1 -5.2,-678.9 -5.3,-877.9 0,-122.6 -20.2,-204.7 47.7,-252.6" /><g
         transform="scale(1.26809)"
         id="g132"><path
           id="path134"
           style="fill:#8b3452;fill-opacity:1;fill-rule:evenodd;stroke:none"
           d="m 8603.55,16154.7 c 0.37,-58.9 5.7,-93.1 -20.44,-134.6 -107,-169.8 -362.28,-55.8 -298.56,143.4 12.73,39.8 47.05,61.4 73.78,80.7 16.29,11.8 36.68,20.4 56.47,22.9 54.19,6.8 108.26,-19.6 144.05,-50.4 1.08,-0.9 15.16,-11.6 15.57,-11.9 l 13.28,-7.9 c -13.17,43.1 -62.25,73.8 -102.13,81.5 -111.88,21.6 -186.68,-27.3 -222.83,-127.5 -17.4,-48.3 -4.48,-98.1 18.43,-141.1 73.73,-138.4 280.21,-103.4 325.42,16.8 12.86,34.3 41.88,106.6 -3.04,128.1" /></g><g
         transform="scale(1.26863)"
         id="g136"><path
           id="path138"
           style="fill:#ad4166;fill-opacity:1;fill-rule:evenodd;stroke:none"
           d="m 7006.08,16033.1 c -4.11,99.9 -10.16,145.4 55.1,198.7 24.01,19.5 48.65,30.6 88.03,32.2 73.28,2.8 66.9,-12.5 117.87,-21.2 -13.08,32.8 -88.41,57.2 -134.33,41.3 l -78.85,-36.3 c -64.28,-48.1 -116.35,-179.4 -47.82,-214.7" /></g></g></g></svg>