<svg xmlns="http://www.w3.org/2000/svg" height="1024" preserveAspectRatio="xMidYMid meet" version="1.1" viewBox="0 0 2048 2048" width="1024">
<defs>
	<linearGradient gradientUnits="userSpaceOnUse" id="Gradient1" x1="975.572" x2="980.04" y1="562.528" y2="545.537">
		<stop class="stop0" offset="0" stop-color="rgb(84,43,97)" stop-opacity="1"></stop>
		<stop class="stop1" offset="1" stop-color="rgb(63,12,98)" stop-opacity="1"></stop>
	</linearGradient>
</defs>
<path d="M 382.504 76.0285 C 406.352 75.5957 441.678 92.1841 459.221 107.692 C 482.264 128.063 495.077 151.744 497.362 182.222 C 499.435 180.818 501.524 179.438 503.629 178.08 C 632.925 94.4999 783.239 76.6703 931.655 109.561 C 1068.59 139.908 1178.56 209.1 1265.29 318.933 C 1275.94 332.143 1285.86 345.928 1294.99 360.225 C 1300.98 369.786 1309.91 386.012 1316.14 394.53 C 1321.27 401.539 1336.41 415.691 1343.18 422.974 C 1357.28 438.406 1369.97 455.067 1381.1 472.756 C 1408.2 514.883 1419.59 554.749 1409.46 605.029 C 1401.8 643.087 1366.94 692.546 1334.74 713.109 C 1332.53 718.614 1330.29 725.861 1328.37 731.592 C 1333.34 742.7 1337.87 758.443 1341.56 770.169 C 1367.3 852.072 1369 941.533 1342.74 1023.58 C 1328.48 1068.14 1301.24 1118.27 1266.27 1149.76 C 1260 1155.5 1254.5 1159.83 1247.12 1163.99 C 1240.74 1167.58 1232.12 1165.83 1230.79 1158 C 1229.57 1150.86 1230.23 1140.54 1230.26 1133.08 C 1230.36 1114.3 1228.08 1097.84 1222.04 1080.08 C 1213.01 1087.65 1187.06 1101.99 1176.35 1107.33 C 1092.33 1149.32 995.742 1155.66 903.272 1149.09 C 903.752 1149.8 906.517 1154.03 906.718 1154.25 C 913.109 1161.26 916.34 1174.68 921.153 1181.34 C 932.114 1196.49 943.897 1211.36 954.783 1226.61 C 975.958 1255.97 995.001 1286.82 1011.77 1318.9 C 1055.03 1266.33 1094.29 1241.33 1159.89 1275.4 C 1164.92 1263.33 1193.16 1201.6 1202.97 1196.76 C 1216.52 1190.06 1253.21 1181.35 1269.76 1177.29 C 1311.36 1166.94 1353.12 1157.2 1395 1148.06 C 1438.1 1137.93 1481.37 1128.55 1524.79 1119.91 C 1544.59 1115.88 1565.05 1111.81 1585.01 1108.53 C 1598.04 1106.38 1631.2 1125.23 1636.63 1136.87 C 1639.61 1143.27 1622.84 1174.1 1619.1 1182.16 C 1607.85 1206.38 1595.22 1230.17 1584.82 1254.82 C 1607.52 1260.45 1608.83 1287.06 1590.97 1300.66 C 1595.58 1317.86 1593.63 1322.18 1581.24 1333.9 C 1586.5 1354.19 1581.96 1361.88 1563.69 1371.99 C 1571.72 1401.61 1545.22 1410.87 1520.87 1407.14 C 1511.81 1428.1 1498.09 1446.33 1490.46 1463.57 C 1530.11 1511.89 1571.53 1558.72 1614.66 1603.97 C 1639.45 1630.12 1667.02 1655.77 1689.5 1683.44 C 1711.01 1675.02 1732.62 1671.97 1754.54 1665.82 C 1760.79 1664.06 1772.96 1656.33 1779.5 1652.81 C 1793.12 1645.32 1807.35 1638.99 1822.02 1633.89 C 1857.86 1621.8 1909.8 1613.42 1946.39 1629.54 C 1952.05 1632.03 1956.5 1636.91 1958.38 1642.95 C 1961.26 1652.23 1956.41 1663.98 1952.06 1672.08 C 1913.93 1743.04 1753.65 1873.3 1682.23 1895.18 C 1675.52 1891.06 1671.6 1887.26 1666.46 1881.5 L 1659.18 1873.03 C 1650.58 1879.76 1637.24 1888.44 1627.99 1894.75 C 1597.6 1915.49 1564.33 1939.11 1528.82 1949.62 C 1511.33 1936.39 1495.09 1914.43 1479.62 1898.09 C 1431.66 1847.4 1389.21 1791.98 1348 1735.79 C 1331.07 1712.69 1314.79 1687.58 1297.28 1665.46 C 1288.28 1671.66 1275.82 1681.97 1266.98 1688.88 C 1299.27 1778.9 1275.43 1863.64 1170.03 1868.44 C 1151.87 1869.27 1136.46 1868.54 1118.33 1867.56 C 1111.21 1892.62 1105.71 1906.76 1088.79 1926.94 C 1061.12 1959.98 1044.24 1955.13 1004.23 1953.03 C 913.469 1948.26 832.678 1922.61 763.404 1861.93 C 697.511 1895.19 667.389 1844.65 641.258 1792.82 C 625.648 1761.85 614.087 1735.66 603.597 1702.36 C 598.019 1684.3 593.531 1665.92 590.157 1647.32 C 563.973 1506.28 595.296 1255.41 677.689 1135.6 C 633.672 1145.27 571.162 1142.46 530.105 1125.11 C 514.188 1118.39 504.351 1112.34 489.506 1104.51 C 503.038 1118.62 516.333 1132.95 529.384 1147.51 C 484.236 1148.98 437.5 1149.9 393.464 1138.25 C 343.923 1125.13 296.87 1098.61 265.036 1057.8 C 256.01 1046.23 249.951 1035.7 242.637 1023.12 C 251.801 1052.95 263.885 1082 275.391 1111.02 C 258.604 1105.09 242.346 1097.75 226.789 1089.09 C 164.105 1053.74 106.892 982.97 87.8077 913.365 C 55.5588 795.744 116.313 695.508 179.289 602.098 C 196.137 576.263 215.568 551.184 231.037 524.506 C 263.199 469.039 286.625 410.794 318.103 354.829 C 285.743 367.962 255.206 385.204 227.246 406.129 C 217.726 413.111 199.151 429.835 190.24 434.443 L 190.174 433.491 C 187.653 393.8 194.341 355.476 218.077 322.24 C 223.07 315.25 232.669 307.3 238.696 300.341 L 239.241 299.703 C 204.359 309.896 173.053 318.226 140.014 334.32 C 122.88 342.667 110.546 350.419 94.2162 360.182 C 93.6989 347.382 94.0152 334.561 95.1632 321.801 C 101.772 252.929 138.598 185.609 191.971 141.725 C 261.827 84.29 355.371 87.9775 413.475 159.456 C 410.345 143.413 407.56 132.844 402.007 117.585 C 398.764 108.673 383.186 82.5627 382.504 76.0285 z" fill="rgb(67,24,102)" transform="translate(0,0)"></path>
<path d="M 795.963 1099.31 C 744.699 1030.28 722.177 955.502 708.89 871.177 C 684.66 717.396 733.838 557.049 800.694 419.956 C 813.986 392.711 828.538 366.099 844.303 340.207 C 851.097 328.811 859.583 313.904 867.303 303.66 C 879.018 345.162 900.226 377.909 928.043 410.209 C 942.901 427.461 959.463 441.761 975.967 457.328 C 944.357 447.736 915.719 444.883 885.547 460.017 C 865.328 470.16 848.05 485.757 840.626 507.552 C 899.398 470.697 932.566 460.806 1001.78 478.308 C 1010.08 487.06 1030.87 501.425 1041.44 508.407 C 1072.31 528.698 1105.33 545.498 1139.91 558.499 C 1198.79 580.204 1267.03 595.71 1323.14 627.055 C 1323.93 690.056 1296.99 766.458 1276.6 825.678 C 1271.28 841.132 1263.95 856.606 1258.98 872.276 C 1253.59 889.275 1255.83 896.719 1263.87 911.878 C 1274.69 933.819 1277.53 962.305 1271.47 986.057 C 1270.03 990.407 1268.23 995.783 1266.58 999.948 C 1249.33 1043.6 1196.34 1079.68 1153.36 1097.2 C 1058.91 1135.7 944.707 1143.23 846.037 1117.21 C 828.336 1112.55 812.7 1106.02 795.963 1099.31 z" fill="rgb(255,255,255)" transform="translate(0,0)"></path>
<path d="M 1263.87 911.878 C 1274.69 933.819 1277.53 962.305 1271.47 986.057 C 1269.5 986.255 1267.54 986.437 1265.57 986.602 C 1249.06 987.968 1236.66 984.527 1223.89 973.763 C 1209.92 961.98 1201.07 942.416 1215.42 927.195 C 1228.11 913.728 1246.68 912.651 1263.87 911.878 z" fill="rgb(245,159,149)" transform="translate(0,0)"></path>
<path d="M 814.338 554.759 C 817.126 557.417 825.703 578.739 828.845 584.149 C 833.362 591.923 834.088 593.52 840.26 601.008 C 868.888 573.925 908.246 558.388 947.791 560.222 C 979.018 561.459 1008.45 575.145 1029.52 598.226 C 1070.8 643.825 1067.08 716.674 1055.28 773.001 C 1044.4 825.004 1008.84 905.215 943.618 900.416 C 925.318 898.948 908.325 890.36 896.29 876.497 C 863.707 838.752 871.864 769.581 887.45 726.478 C 899.548 693.021 915.723 666.214 942.757 643.19 C 968.563 620.57 992.866 610.978 1025.82 623.861 C 999.985 599.567 973.865 586.236 937.257 590.801 C 833.985 603.676 762.347 737.96 810.212 830.65 C 819.574 848.779 838.265 862.103 854.26 874.156 C 762.956 844.855 747.333 735.726 790.88 660.58 C 803.202 639.316 813.871 625.742 831.436 608.274 C 817.06 591.657 815.078 576.12 814.338 554.759 z" fill="rgb(67,24,102)" transform="translate(0,0)"></path>
<path d="M 991.291 626.234 C 1005.02 625.577 1016.33 625.112 1027.64 634.563 C 1044.78 648.893 1052.27 679.385 1053.59 700.895 C 1056.61 750.307 1040.18 823.443 1007.72 861.446 C 990.058 882.131 972.444 890.116 946.239 891.843 C 831.329 880.789 884.488 650.382 991.291 626.234 z" fill="rgb(136,76,150)" transform="translate(0,0)"></path>
<path d="M 998.623 654.127 C 1018.26 652.774 1033.01 661.23 1039.63 680.423 C 1052.51 717.738 1038.11 781.983 997.424 796.249 C 935.315 804.319 935.629 675.339 998.623 654.127 z" fill="rgb(67,24,102)" transform="translate(0,0)"></path>
<path d="M 1004.93 663.153 C 1055.97 665.973 1039.79 777.374 992.266 787.871 C 945.539 787.159 951.432 674.364 1004.93 663.153 z" fill="rgb(255,255,255)" transform="translate(0,0)"></path>
<path d="M 1239.42 641.213 C 1282.53 636.896 1299.35 684.087 1289.26 718.553 C 1287.93 725.558 1282.68 735.792 1281.91 742.623 C 1277.55 784.454 1265.57 823.385 1248.64 860.939 C 1206.1 955.303 1149.96 936.822 1176.58 834.186 C 1189.37 784.835 1198.25 747.311 1223.85 702.45 C 1237.67 680.841 1249.51 663.977 1272.25 687.598 C 1271.69 686.385 1271.11 685.178 1270.52 683.977 C 1266.68 676.122 1261.7 669.783 1253.07 667.023 C 1246.26 664.844 1240.09 664.767 1233.67 668.155 C 1205.73 682.879 1173.25 775.1 1164.36 805.995 C 1158.94 824.801 1156.03 844.482 1150.17 863.04 L 1149.8 864.166 C 1154.04 809.411 1183.41 661.428 1239.42 641.213 z" fill="rgb(67,24,102)" transform="translate(0,0)"></path>
<path d="M 1250.28 683.84 C 1252.37 684.288 1255.55 684.919 1257.18 686.315 C 1263.42 691.666 1273.91 712.405 1268.45 719.584 C 1262.65 715.867 1253.45 712.727 1247.37 717.605 C 1230.75 730.932 1220.07 756.29 1216.54 776.806 C 1214.09 791.09 1212.32 811.406 1221.04 823.729 C 1232.53 839.203 1247.31 826.933 1258.3 818.249 C 1250.2 841.373 1239.84 863.646 1227.39 884.748 C 1219.75 896.106 1205.87 917.262 1189.29 913.842 C 1186.58 913.284 1182.67 909.737 1181.79 907.315 C 1165.73 863.016 1213.26 704.45 1250.28 683.84 z" fill="rgb(136,76,150)" transform="translate(0,0)"></path>
<path d="M 1254.2 722.794 C 1267.12 722.809 1268.03 736.382 1267.89 746.567 C 1267.54 770.779 1259.59 811.103 1236.48 823.298 C 1217.82 820.273 1222.82 787.178 1225.5 774.05 C 1229.14 756.211 1238.6 733.196 1254.2 722.794 z" fill="rgb(255,255,255)" transform="translate(0,0)"></path>
<path d="M 762.677 860.138 C 789.924 858.142 822.188 871.847 843.18 888.704 C 857.329 900.067 871.114 917.126 844.805 925.036 C 811.89 931.007 763.864 911.503 747.847 880.312 C 742.393 869.691 753.433 862.728 762.677 860.138 z" fill="rgb(245,159,149)" transform="translate(0,0)"></path>
<path d="M 1001.44 985.033 L 1002.91 988.844 C 1017.11 1004.54 1047.22 1019.63 1068.59 1020.94 C 1093.04 1022.44 1098.75 1015.21 1115.71 1000.81 C 1114.34 1003.26 1112.88 1005.66 1111.33 1008.01 C 1096.44 1030.42 1057.22 1058.35 1030.71 1062.46 C 978.103 1070.61 977.727 1016.51 1001.44 985.033 z" fill="rgb(67,24,102)" transform="translate(0,0)"></path>
<path d="M 1002.53 999.534 C 1016.76 1012.1 1022.66 1015.59 1040.08 1023 C 1037.22 1033.92 1033.48 1044.58 1028.91 1054.89 C 1020.2 1057.02 1013.46 1057 1005.5 1052.62 C 981.416 1039.37 993.618 1016.69 1002.53 999.534 z" fill="rgb(255,255,255)" transform="translate(0,0)"></path>
<path d="M 949.553 540.405 C 983.731 538.323 1014.99 555.519 1032.27 584.84 C 1027.01 579.461 1024.25 576.62 1018.3 572.109 C 988.118 552.33 956.519 546.339 920.914 544.677 C 931.451 542.412 938.866 541.251 949.553 540.405 z" fill="url(#Gradient1)" transform="translate(0,0)"></path>
<path d="M 1139.41 919.08 C 1167.39 917.758 1168.56 945.952 1143.11 958.34 C 1141.6 958.149 1141.27 957.935 1139.82 957.442 C 1140.54 952.215 1152.29 944.545 1151.18 935.944 C 1150.17 928.124 1139.79 927.67 1135.65 923.84 C 1136.44 920.817 1136.57 921.512 1139.41 919.08 z" fill="rgb(67,24,102)" transform="translate(0,0)"></path>
<path d="M 1235.85 626.14 C 1254.2 625.002 1267.97 628.362 1276.73 645.627 L 1263.8 639.964 C 1245.18 633.189 1235.32 632.807 1215.62 635.048 C 1223.49 630.423 1227.28 628.551 1235.85 626.14 z" fill="rgb(67,24,102)" transform="translate(0,0)"></path>
<path d="M 1001.44 985.033 C 1003.37 982.782 1004.82 980.339 1007.52 979.814 C 1007.41 982.927 1004.76 986.085 1002.91 988.844 L 1001.44 985.033 z" fill="rgb(72,30,85)" transform="translate(0,0)"></path>
<path d="M 147.648 987.811 C 119.787 947.888 100.487 899.382 100.187 850.328 C 99.4554 730.797 188.905 635.696 246.537 539.215 C 260.25 516.115 272.951 492.427 284.601 468.22 C 317.76 398.774 345.363 335.943 401.163 280.588 C 425.652 256.295 449.387 239.535 476.964 219.279 C 589.626 136.526 728.249 99.8216 866.917 118.439 C 890.506 121.629 1009.39 145.003 1021.69 157.059 C 993.406 148.743 969.729 146.083 940.521 142.855 C 930.59 143.91 920.7 143.885 910.739 144.473 C 867.28 147.04 824.281 162.271 784.867 180.11 C 773.234 177.98 756.175 177.523 744.112 177.175 C 675.425 175.197 611.532 187.456 546.954 210.44 C 538.253 213.537 490.017 234.916 485.008 234.584 C 448.448 253.927 417.122 281.842 393.709 315.939 C 390.829 327.578 386.81 338.192 385.974 350.463 C 382.26 404.983 403.586 462.329 431.346 508.687 C 441.156 525.069 456.78 547.953 470.016 560.542 C 463.552 583.642 454.128 619.316 452.8 643.424 C 435.346 646.251 421.637 651.327 407.952 662.674 C 336.127 722.228 365.691 853.07 436.326 901.222 C 471.533 925.223 503.593 930.983 544.999 928.004 C 567.757 988.738 600.384 1039.43 650.576 1080.89 C 663.148 1091.28 679.599 1103.72 694.474 1110.46 C 675.984 1116.56 665.619 1117.19 646.639 1119.03 C 601.325 1123.43 559.873 1118.66 518.763 1097.86 C 498.552 1087.63 475.036 1070.99 459.315 1054.39 C 451.809 1046.46 443.622 1030.8 437.952 1021 C 408.022 969.239 390.887 916.1 371.83 860.187 C 379.672 953.189 424.599 1060.23 488.435 1128.44 C 466.632 1127.92 440.813 1126.66 419.484 1122.88 C 373.982 1114.79 323.894 1091.45 291.964 1057.61 C 255.448 1018.91 233.454 957.224 235.569 904.249 C 238.343 834.782 261.51 769.46 296.194 710.026 C 282.588 724.573 269.503 739.965 259.268 757.122 C 205.557 847.16 200.067 978.484 240.542 1074.15 C 215.025 1059.64 160.295 1013.38 147.648 987.811 z" fill="rgb(158,119,176)" transform="translate(0,0)"></path>
<path d="M 147.648 987.811 C 119.787 947.888 100.487 899.382 100.187 850.328 C 99.4554 730.797 188.905 635.696 246.537 539.215 C 260.25 516.115 272.951 492.427 284.601 468.22 C 317.76 398.774 345.363 335.943 401.163 280.588 C 425.652 256.295 449.387 239.535 476.964 219.279 C 589.626 136.526 728.249 99.8216 866.917 118.439 C 890.506 121.629 1009.39 145.003 1021.69 157.059 C 993.406 148.743 969.729 146.083 940.521 142.855 C 930.59 143.91 920.7 143.885 910.739 144.473 C 867.28 147.04 824.281 162.271 784.867 180.11 C 773.234 177.98 756.175 177.523 744.112 177.175 C 675.425 175.197 611.532 187.456 546.954 210.44 C 538.253 213.537 490.017 234.916 485.008 234.584 C 448.448 253.927 417.122 281.842 393.709 315.939 C 348.719 362.912 324.051 422.846 296.767 480.367 C 284.621 506.123 271.397 531.357 257.13 556.002 C 198.732 656.112 113.736 739.329 116.31 865.242 C 116.902 895.982 122.826 926.386 133.818 955.099 C 136.456 962.095 147.368 983.381 147.648 987.811 z" fill="rgb(255,255,255)" transform="translate(0,0)"></path>
<path d="M 485.008 234.584 C 486.134 233.662 487.052 232.966 488.269 232.159 C 620.789 142.575 783.896 110.367 940.521 142.855 C 930.59 143.91 920.7 143.885 910.739 144.473 C 867.28 147.04 824.281 162.271 784.867 180.11 C 773.234 177.98 756.175 177.523 744.112 177.175 C 675.425 175.197 611.532 187.456 546.954 210.44 C 538.253 213.537 490.017 234.916 485.008 234.584 z" fill="rgb(158,119,176)" transform="translate(0,0)"></path>
<path d="M 1616.39 1148.14 L 1616.92 1148.24 L 1617.41 1149.5 C 1600.96 1179.34 1579.7 1224.58 1565.99 1255.6 C 1549.71 1259.05 1530.21 1265.21 1531.39 1287.5 C 1531.53 1290.13 1531.96 1289.43 1531.38 1292.14 C 1525.33 1297.23 1514.9 1291.81 1511 1305.07 C 1508.66 1313.02 1508.06 1313.34 1509.95 1321.74 C 1499.32 1335.51 1493.96 1344.85 1505.87 1359.98 C 1501.99 1365.15 1500.44 1367.44 1497.31 1373.12 L 1498.21 1386.28 C 1501.54 1391.5 1502.84 1392.64 1507.2 1396.86 C 1499.47 1413.57 1487.96 1435.91 1478.14 1451.25 C 1455.05 1428.05 1431.83 1408.46 1397.1 1407.27 C 1367.28 1406.25 1335.65 1423.1 1314.44 1443.2 C 1303.95 1437.92 1293.8 1433.68 1281.85 1433.47 C 1224.85 1432.46 1157.73 1497.82 1117.93 1534.65 C 1094.81 1557.12 1096.95 1553.43 1067.23 1562.33 C 1090.4 1521.84 1110.76 1480.29 1132.03 1438.79 C 1166.33 1372.15 1199.81 1305.09 1232.49 1237.64 C 1250.52 1232.95 1269.52 1229.16 1287.76 1224.8 C 1367.92 1205.6 1448.81 1189.05 1528.85 1169.42 C 1557.84 1162.31 1587.89 1156.88 1616.39 1148.14 z" fill="rgb(255,255,255)" transform="translate(0,0)"></path>
<path d="M 832.961 321.116 C 833.656 323.472 825.143 335.198 823.306 338.156 C 812.467 355.323 802.379 372.953 793.07 390.996 C 742.533 488.705 702.997 598.659 688.092 708.351 C 671.568 829.96 696.79 970.418 757.911 1077.3 C 769.539 1097.64 784.786 1116.96 799.136 1135.53 C 761.086 1124.92 736.762 1112.69 702.848 1092.99 C 656.846 1063.64 622.609 1033.5 593.599 986.521 C 540.445 900.447 534.616 796.658 556.129 699.687 C 587.184 559.706 676.952 439.243 788.194 351.502 C 801.136 341.295 819.165 329.985 832.961 321.116 z" fill="rgb(158,119,176)" transform="translate(0,0)"></path>
<path d="M 917.432 162.411 C 943.306 159.647 976.442 164.317 1001.85 168.939 C 1095.64 186.001 1159.33 227.102 1221.28 298.162 C 1235.08 313.996 1253.24 333.321 1264.99 350.695 C 1218.07 308.06 1130.75 262.163 1068.5 248.853 C 1046.96 244.36 1024.92 242.684 1002.95 243.865 C 906.097 248.437 812.003 302.459 740.678 365.373 C 717.415 385.893 695.51 408.898 674.682 431.864 C 608.053 510.634 568.995 578.618 541.987 678.283 C 517.974 654.393 502.776 648.026 470.66 642.611 C 492.86 530.732 543.552 426.473 617.832 339.915 C 694.514 250.286 795.751 171.851 917.432 162.411 z" fill="rgb(245,159,149)" transform="translate(0,0)"></path>
<path d="M 1269.14 1452.23 C 1274.92 1451.39 1280.79 1451.39 1286.58 1452.21 C 1320.96 1457.31 1348.04 1499.96 1366.83 1526.41 L 1407.47 1583.96 C 1429.41 1615.06 1452.64 1644.53 1475.71 1674.77 C 1439.48 1692.15 1408.43 1720.52 1384.22 1752.26 L 1308.58 1649.33 C 1295.52 1631.36 1266.52 1587.03 1246.8 1575.87 C 1242.19 1573.26 1202.69 1615.12 1197.13 1621.18 C 1136.06 1684.86 1079.5 1752.93 1004.62 1800.27 C 1005.93 1782.21 1009.77 1765.03 1013.79 1747.46 C 1020.07 1746.19 1028.04 1745.26 1033.83 1742.87 C 1034.4 1742.88 1036.72 1740.64 1036.57 1740.31 C 1019.75 1703.09 1018.5 1667.52 1032.84 1628.8 C 1054.18 1612.19 1076.81 1595.23 1097.5 1577.92 C 1143.98 1539.07 1209.21 1464.67 1269.14 1452.23 z" fill="rgb(255,255,255)" transform="translate(0,0)"></path>
<path d="M 1032.16 1548.93 C 1034.89 1551.07 1033.6 1563.53 1041.53 1569.65 C 1052.37 1578.01 1057.16 1573.12 1065.32 1575.14 C 1055.55 1579.68 929.883 1631.93 932.179 1629.46 C 952.471 1637.35 1030.24 1601.88 1051.47 1591.31 C 1039.22 1601.36 1024.9 1612.75 1018.47 1627.44 C 1002.38 1664.17 1006.72 1695.93 1019.33 1731.78 C 968.138 1737.31 916.507 1737.51 865.273 1732.36 C 849.225 1730.64 828.151 1725.15 813.1 1724.4 L 811.63 1724.34 C 855.814 1750.84 951.044 1751.39 1002.09 1748.23 C 988.451 1787.26 987.34 1819.47 995.957 1859.53 C 940.994 1845.55 908.359 1839.65 853.821 1816.35 C 840.872 1810.78 828.186 1804.62 815.803 1797.88 C 810.142 1794.77 799.517 1787.76 794.337 1785.85 L 793.952 1787.22 L 796.234 1790.57 C 839.674 1828.19 898.01 1849.56 953.116 1863.13 C 969.801 1867.24 988.855 1872.89 1005.96 1873.21 C 1015.04 1863.22 1023.38 1844.1 1029.24 1831.63 C 1025.09 1867.95 1019.21 1903.51 1036.77 1936.33 C 921.03 1935.1 813.55 1903.18 739.058 1809.66 C 795.509 1710.84 862.34 1647.51 960.131 1590.09 C 981.82 1577.36 1009.87 1559.4 1032.16 1548.93 z" fill="rgb(158,119,176)" transform="translate(0,0)"></path>
<path d="M 917.628 279.783 C 929.37 275.907 941.342 272.763 953.474 270.369 L 954.874 271.062 C 967.889 277.428 981.793 281.692 995.017 287.598 C 1082.87 326.832 1167.2 375.194 1239.31 439.417 C 1281.87 477.326 1324.05 517.62 1345.22 571.708 C 1350.82 586.052 1355.57 614.912 1352.26 630.133 C 1349.26 619.989 1338.92 592.6 1327.61 590.038 C 1322.98 583.982 1319.06 576.683 1314.3 570.904 C 1298.94 552.265 1277.34 534.941 1252.72 531.571 C 1242.57 530.18 1228.52 531.001 1222.91 540.994 L 1222.98 542.983 C 1225.93 544.645 1237.08 543.35 1244.68 544.887 C 1270.49 550.101 1307.14 580.424 1316.48 604.356 C 1289.73 593.661 1260.76 577.843 1234.39 568.95 C 1169.03 546.903 1098.25 528.815 1042.47 485.828 C 1029.11 475.536 1005.55 449.74 994.4 436.642 C 972.13 410.482 950.275 377.856 937.003 346.303 C 929.43 328.3 919.031 299.126 917.628 279.783 z" fill="rgb(158,119,176)" transform="translate(0,0)"></path>
<path d="M 600.646 1508.81 C 622.152 1495.82 643.372 1484.4 668.827 1481.52 C 671.049 1489.15 673.313 1497.62 675.762 1505.11 C 680.748 1521.42 689.92 1544.87 698.453 1560.1 C 702.287 1567.09 706.098 1574.29 710.39 1580.99 C 725.074 1600.5 734.578 1610.99 756.954 1621.27 C 769.577 1628.21 770.916 1626.44 785.077 1628.42 C 843.16 1633.29 882.068 1613.13 931.413 1585.76 L 932.403 1587.4 C 905.622 1603.84 880.599 1620.1 856.367 1640.24 C 792.552 1693.27 726.883 1769.66 702.299 1849.92 C 687.652 1833.82 664.485 1801.09 655.565 1780.31 C 650.931 1770.87 645.642 1761.2 642.119 1751.35 C 630.921 1719.32 623.627 1695.78 615.96 1662.42 C 613.54 1652.15 611.404 1640.21 609.291 1629.76 C 605.84 1609.59 601.174 1559.89 601.006 1539.38 C 600.701 1529.02 600.376 1519.19 600.646 1508.81 z" fill="rgb(245,159,149)" transform="translate(0,0)"></path>
<path d="M 931.413 1585.76 L 932.403 1587.4 C 905.622 1603.84 880.599 1620.1 856.367 1640.24 C 792.552 1693.27 726.883 1769.66 702.299 1849.92 C 687.652 1833.82 664.485 1801.09 655.565 1780.31 C 650.931 1770.87 645.642 1761.2 642.119 1751.35 C 649.593 1740.14 656.272 1724.67 665.186 1711.39 C 682.966 1684.79 704.853 1661.18 730.029 1641.44 C 738.874 1634.39 748.255 1628.42 756.954 1621.27 C 769.577 1628.21 770.916 1626.44 785.077 1628.42 C 843.16 1633.29 882.068 1613.13 931.413 1585.76 z" fill="rgb(245,159,149)" transform="translate(0,0)"></path>
<path d="M 642.119 1751.35 C 649.593 1740.14 656.272 1724.67 665.186 1711.39 C 682.966 1684.79 704.853 1661.18 730.029 1641.44 C 738.874 1634.39 748.255 1628.42 756.954 1621.27 C 769.577 1628.21 770.916 1626.44 785.077 1628.42 L 783.582 1629.75 C 778.156 1634.52 769.824 1640.15 763.966 1644.33 C 720.51 1675.3 683.391 1716.17 662.119 1765.51 C 660.191 1769.98 657.871 1776.05 655.565 1780.31 C 650.931 1770.87 645.642 1761.2 642.119 1751.35 z" fill="rgb(255,255,255)" transform="translate(0,0)"></path>
<path d="M 600.646 1508.81 C 622.152 1495.82 643.372 1484.4 668.827 1481.52 C 671.049 1489.15 673.313 1497.62 675.762 1505.11 C 680.748 1521.42 689.92 1544.87 698.453 1560.1 C 668.167 1574.3 627.802 1601.91 609.291 1629.76 C 605.84 1609.59 601.174 1559.89 601.006 1539.38 C 600.701 1529.02 600.376 1519.19 600.646 1508.81 z" fill="rgb(245,159,149)" transform="translate(0,0)"></path>
<path d="M 600.646 1508.81 C 622.152 1495.82 643.372 1484.4 668.827 1481.52 C 671.049 1489.15 673.313 1497.62 675.762 1505.11 C 651.566 1509.8 618.828 1521.72 601.006 1539.38 C 600.701 1529.02 600.376 1519.19 600.646 1508.81 z" fill="rgb(255,255,255)" transform="translate(0,0)"></path>
<path d="M 609.291 1629.76 C 627.802 1601.91 668.167 1574.3 698.453 1560.1 C 702.287 1567.09 706.098 1574.29 710.39 1580.99 C 674.134 1597.48 636.341 1627.86 615.96 1662.42 C 613.54 1652.15 611.404 1640.21 609.291 1629.76 z" fill="rgb(255,255,255)" transform="translate(0,0)"></path>
<path d="M 1100.08 1279.4 C 1102.85 1279.21 1105.63 1279.21 1108.39 1279.4 C 1126.17 1280.51 1141.09 1284.21 1153.14 1297.95 C 1151.13 1303.92 1148.81 1308.72 1146.17 1314.42 C 1125.76 1296.08 1098.25 1294.68 1073.66 1305.09 C 1092.71 1303.99 1113.69 1305.03 1129.8 1316.19 C 1144.77 1326.57 1137.06 1339.11 1128.52 1349.65 C 1113.6 1329.71 1089.39 1327.04 1066.87 1333.88 C 1093.11 1336.59 1116.39 1341.34 1123 1371.12 C 1120.01 1379.91 1113.45 1392.61 1109.27 1401.3 C 1107.77 1375.54 1096.69 1356.14 1067.6 1356.46 C 1062.9 1356.51 1053.81 1358.6 1050.61 1362.18 C 1060.38 1364.81 1063.83 1360.89 1076.79 1366.87 C 1099.32 1377.27 1102.77 1407.88 1091.04 1428.37 L 1090.33 1429.59 C 1084.41 1430.98 1079.25 1431.16 1073.21 1431.58 C 1070.3 1422.13 1068.02 1395.04 1063.46 1391.24 C 1060.72 1392.99 1059.27 1398.04 1059.11 1401.14 C 1058.41 1415.02 1057.75 1430.42 1067.27 1441.69 C 1048.31 1465.47 1030.82 1482.31 1008.41 1502.87 C 988.608 1519.59 961.396 1543.8 939.327 1557.56 C 888.297 1589.38 833.039 1619.26 771.435 1606.44 C 764.76 1561.55 773.926 1524.06 806.619 1491.08 C 823.995 1486.14 846.427 1484.38 864.652 1480.2 C 897.132 1472.76 982.608 1442.8 991.945 1409.07 C 1006.12 1357.86 1040.12 1284.88 1100.08 1279.4 z" fill="rgb(255,255,255)" transform="translate(0,0)"></path>
<path d="M 117.008 323.387 C 118.996 302.937 123.617 282.83 130.755 263.563 C 149.789 210.948 191.148 159.761 242.403 135.701 C 277.131 119.399 308.962 119.602 344.524 132.517 C 342.118 133.694 322.686 131.306 316.507 131.541 C 306.781 131.912 302.828 131.977 293.024 133.586 L 283.992 135.513 C 293.001 140.509 307.249 142.276 317.501 147.045 C 359.761 166.705 390.727 205.732 409.499 247.454 C 385.926 273.215 357.378 301.445 336.322 329.231 C 282.431 346.434 257.536 358.708 211.793 391.997 C 218.567 353.818 240.681 317.254 270.858 291.998 C 279.478 284.783 292.31 284.529 305.78 274.203 C 286.896 277.4 269.261 278.547 250.373 280.708 C 221.204 284.044 191.589 290.448 164.076 300.685 C 151.645 305.404 137.976 312.526 125.598 318.016 C 122.888 319.919 119.859 321.661 117.008 323.387 z" fill="rgb(158,119,176)" transform="translate(0,0)"></path>
<path d="M 117.008 323.387 C 118.996 302.937 123.617 282.83 130.755 263.563 C 149.789 210.948 191.148 159.761 242.403 135.701 C 277.131 119.399 308.962 119.602 344.524 132.517 C 342.118 133.694 322.686 131.306 316.507 131.541 C 306.781 131.912 302.828 131.977 293.024 133.586 L 283.992 135.513 C 221.162 154.186 179.346 198.58 148.553 254.557 C 139.23 271.504 127.386 298.38 125.598 318.016 C 122.888 319.919 119.859 321.661 117.008 323.387 z" fill="rgb(255,255,255)" transform="translate(0,0)"></path>
<path d="M 1388.34 1426.31 C 1440.91 1417.28 1492.55 1496.24 1523.38 1530.26 C 1551.95 1561.78 1582.76 1594.05 1610.41 1626.11 C 1583.21 1632.9 1555.45 1652.99 1533.59 1670.19 C 1526.19 1676.09 1518.48 1683.04 1511.28 1689.29 C 1490.81 1661.49 1467.46 1634.07 1446.64 1606.15 L 1389.24 1527.79 C 1373.27 1505.81 1349.6 1468.52 1329.18 1453.62 C 1346.67 1440.24 1366.45 1429.77 1388.34 1426.31 z" fill="rgb(255,255,255)" transform="translate(0,0)"></path>
<path d="M 965.41 266.862 C 986.993 263.98 1005.63 261.813 1027.04 262.576 C 1080.02 264.465 1122.78 288.563 1167.12 314.37 C 1172.97 317.777 1187.39 327.952 1193.55 328.672 L 1161.62 304.359 C 1224.15 331.861 1316.27 414.042 1355.62 469.318 C 1366.9 485.507 1376.3 502.932 1383.62 521.254 C 1397.09 554.843 1396.29 592.473 1381.38 625.453 C 1370.21 650.853 1354.89 669.453 1335.92 689.296 C 1344.87 646.269 1344.96 630.775 1327.61 590.038 C 1338.92 592.6 1349.26 619.989 1352.26 630.133 C 1352.12 635.994 1352 641.358 1352.17 647.228 C 1352.94 645.784 1356.02 640.265 1356.48 639.052 C 1355.85 633.966 1356.96 623.831 1357.43 618.205 C 1358.71 602.635 1357.34 587.057 1352.77 572.02 C 1336.37 518.088 1299.74 482.314 1260.32 445.489 C 1198.53 387.758 1133.76 346.441 1058.42 308.197 C 1040.64 299.248 1022.53 290.983 1004.11 283.422 C 992.227 278.536 976.365 273.04 965.41 266.862 z" fill="rgb(158,119,176)" transform="translate(0,0)"></path>
<path d="M 1161.62 304.359 C 1224.15 331.861 1316.27 414.042 1355.62 469.318 C 1366.9 485.507 1376.3 502.932 1383.62 521.254 C 1397.09 554.843 1396.29 592.473 1381.38 625.453 C 1370.21 650.853 1354.89 669.453 1335.92 689.296 C 1344.87 646.269 1344.96 630.775 1327.61 590.038 C 1338.92 592.6 1349.26 619.989 1352.26 630.133 C 1352.12 635.994 1352 641.358 1352.17 647.228 C 1352.94 645.784 1356.02 640.265 1356.48 639.052 C 1357.33 637.791 1358.16 636.508 1358.95 635.205 C 1425.29 528.239 1301.42 419.082 1228.18 354.988 C 1219 346.948 1203.86 335.009 1193.55 328.672 L 1161.62 304.359 z" fill="rgb(255,255,255)" transform="translate(0,0)"></path>
<path d="M 462.692 662.413 C 494.686 660.97 514.746 674.142 538.287 693.67 C 533.84 711.704 532.083 731.062 528.4 749.031 C 518.403 728.57 502.884 706.958 480.643 699.115 C 447.527 687.437 421.137 707.385 411.714 738.327 C 404.001 763.871 406.658 791.425 419.111 815.024 C 415.693 793.936 414.375 777.992 418.006 756.368 C 422.146 731.721 439.457 702.919 468.725 709.919 C 488.633 714.68 502.216 733.671 512.417 750.42 C 481.401 749.86 466.156 767.802 463.314 797.514 C 461.137 820.266 470.078 840.925 484.587 858.193 C 496.705 870.774 504.783 873.525 520.95 878.122 C 501.185 866.946 487.777 853.611 479.568 831.875 C 473.794 815.898 472.134 795.521 479.541 779.983 C 485.003 768.526 497.861 756.454 510.512 764.318 C 517.718 768.797 523.634 779.747 525.421 787.958 C 526.897 794.74 525.55 801.73 525.887 808.589 C 525.833 843.606 531.564 877.373 540.343 911.221 C 453.702 912.052 397.203 860.525 386.369 774.004 C 379.697 720.728 403.769 667.207 462.692 662.413 z" fill="rgb(255,255,255)" transform="translate(0,0)"></path>
<path d="M 422.775 287.582 C 425.783 289.429 436.74 302.688 440.563 306.223 C 475.515 338.542 522.686 360.007 566.876 375.009 C 540.162 408.488 511.101 465.642 493.107 504.5 C 485.528 521.426 480.122 534.919 474.146 552.454 C 454.027 524.249 435.03 497.777 420.849 466.007 C 395.525 409.274 375.993 338.467 422.775 287.582 z" fill="rgb(158,119,176)" transform="translate(0,0)"></path>
<path d="M 826.188 1287.73 C 840.176 1269.46 858.346 1236.69 870.628 1216.4 C 880.502 1229.8 890.011 1243.46 899.145 1257.37 C 899.088 1266.51 898.527 1275.68 898.062 1284.8 C 897.691 1293.33 897.042 1302.26 896.804 1310.7 C 895.514 1325.88 894.135 1347.04 893.966 1362.35 C 894.036 1367.94 893.938 1374.92 894.433 1380.34 C 896.154 1396.65 897.373 1408.58 904.489 1423.56 C 908.002 1427.86 913.493 1434.99 917.151 1438.8 L 920.539 1441.9 L 920.457 1443.41 C 905.952 1451.47 849.894 1469.83 832.756 1473.24 C 837.11 1469.25 841.996 1465.91 841.856 1459.43 C 834.884 1454.04 827.842 1445.67 822.162 1438.99 C 810.34 1420.71 803.857 1406.27 795.373 1386.54 C 792.063 1380.57 788.483 1367.86 786.359 1360.9 C 778.803 1338.49 772.127 1315.8 766.344 1292.87 C 763.365 1284.86 761.531 1276.45 759.51 1268.14 C 775.09 1277.46 795.704 1280.47 813.244 1285.22 C 814.815 1288.52 815.74 1291.74 818.746 1293.45 C 822.643 1292.82 823.438 1291.23 826.188 1287.73 z" fill="rgb(245,159,149)" transform="translate(0,0)"></path>
<path d="M 894.433 1380.34 C 896.154 1396.65 897.373 1408.58 904.489 1423.56 C 908.002 1427.86 913.493 1434.99 917.151 1438.8 L 920.539 1441.9 L 920.457 1443.41 C 905.952 1451.47 849.894 1469.83 832.756 1473.24 C 837.11 1469.25 841.996 1465.91 841.856 1459.43 C 834.884 1454.04 827.842 1445.67 822.162 1438.99 C 810.34 1420.71 803.857 1406.27 795.373 1386.54 C 823.601 1390.39 863.738 1395.03 892.752 1383.97 C 894.084 1383.46 893.942 1382.23 894.433 1380.34 z" fill="rgb(245,159,149)" transform="translate(0,0)"></path>
<path d="M 822.162 1438.99 C 824.691 1437.75 853.206 1435.06 859.513 1433.87 C 874.547 1431.03 889.796 1428.46 904.489 1423.56 C 908.002 1427.86 913.493 1434.99 917.151 1438.8 L 920.539 1441.9 L 920.457 1443.41 C 905.952 1451.47 849.894 1469.83 832.756 1473.24 C 837.11 1469.25 841.996 1465.91 841.856 1459.43 C 834.884 1454.04 827.842 1445.67 822.162 1438.99 z" fill="rgb(255,255,255)" transform="translate(0,0)"></path>
<path d="M 917.151 1438.8 L 920.539 1441.9 L 920.457 1443.41 C 905.952 1451.47 849.894 1469.83 832.756 1473.24 C 837.11 1469.25 841.996 1465.91 841.856 1459.43 C 858.81 1453.2 902.011 1448.42 917.151 1438.8 z" fill="rgb(245,159,149)" transform="translate(0,0)"></path>
<path d="M 826.188 1287.73 C 840.176 1269.46 858.346 1236.69 870.628 1216.4 C 880.502 1229.8 890.011 1243.46 899.145 1257.37 C 899.088 1266.51 898.527 1275.68 898.062 1284.8 C 897.691 1293.33 897.042 1302.26 896.804 1310.7 C 844.582 1315.86 815.484 1311.56 766.344 1292.87 C 763.365 1284.86 761.531 1276.45 759.51 1268.14 C 775.09 1277.46 795.704 1280.47 813.244 1285.22 C 814.815 1288.52 815.74 1291.74 818.746 1293.45 C 822.643 1292.82 823.438 1291.23 826.188 1287.73 z" fill="rgb(255,255,255)" transform="translate(0,0)"></path>
<path d="M 826.188 1287.73 C 840.176 1269.46 858.346 1236.69 870.628 1216.4 C 880.502 1229.8 890.011 1243.46 899.145 1257.37 C 899.088 1266.51 898.527 1275.68 898.062 1284.8 C 880.935 1286.94 842.64 1292.19 826.188 1287.73 z" fill="rgb(245,159,149)" transform="translate(0,0)"></path>
<path d="M 786.359 1360.9 C 790.738 1360.04 818.683 1367.67 825.634 1368.39 C 851.088 1371.05 869.667 1368.89 893.966 1362.35 C 894.036 1367.94 893.938 1374.92 894.433 1380.34 C 893.942 1382.23 894.084 1383.46 892.752 1383.97 C 863.738 1395.03 823.601 1390.39 795.373 1386.54 C 792.063 1380.57 788.483 1367.86 786.359 1360.9 z" fill="rgb(255,255,255)" transform="translate(0,0)"></path>
<path d="M 652.174 1283.63 C 685.7 1260.19 708.146 1257.93 748.323 1264.15 C 749.305 1270.35 750.261 1277.33 751.569 1283.39 C 755.247 1303.98 759.124 1319.37 764.58 1339.62 L 771.055 1361.89 C 775.888 1378.22 782.283 1397.85 789.46 1413.34 C 745.659 1421.98 714.917 1448.77 686.362 1480.39 C 685.93 1476.67 681.359 1461.62 680.145 1457.24 C 676.158 1442.86 672.61 1429.59 669.567 1414.97 C 666.965 1406.12 665.489 1397.55 663.779 1388.52 C 659.198 1362.25 655.681 1335.81 653.238 1309.25 C 652.721 1300.59 652.197 1292.33 652.174 1283.63 z" fill="rgb(245,159,149)" transform="translate(0,0)"></path>
<path d="M 652.174 1283.63 C 685.7 1260.19 708.146 1257.93 748.323 1264.15 C 749.305 1270.35 750.261 1277.33 751.569 1283.39 C 755.247 1303.98 759.124 1319.37 764.58 1339.62 C 725.443 1343.49 691.488 1361.04 663.779 1388.52 C 659.198 1362.25 655.681 1335.81 653.238 1309.25 C 652.721 1300.59 652.197 1292.33 652.174 1283.63 z" fill="rgb(245,159,149)" transform="translate(0,0)"></path>
<path d="M 652.174 1283.63 C 685.7 1260.19 708.146 1257.93 748.323 1264.15 C 749.305 1270.35 750.261 1277.33 751.569 1283.39 C 719.446 1279.58 694.279 1280.1 666.093 1300 C 662.221 1302.73 657.565 1307.72 653.238 1309.25 C 652.721 1300.59 652.197 1292.33 652.174 1283.63 z" fill="rgb(255,255,255)" transform="translate(0,0)"></path>
<path d="M 663.779 1388.52 C 691.488 1361.04 725.443 1343.49 764.58 1339.62 L 771.055 1361.89 C 726.125 1367.49 701.357 1382.9 669.567 1414.97 C 666.965 1406.12 665.489 1397.55 663.779 1388.52 z" fill="rgb(255,255,255)" transform="translate(0,0)"></path>
<path d="M 567.071 238.433 C 603.843 236.755 643.888 243.915 680.107 249.914 C 640.318 281.792 602.86 326.736 572.105 366.99 C 564.175 364.98 559.449 363.361 551.754 360.468 C 510.321 344.356 459.37 315.415 428.972 283.155 C 446.53 267.64 460.93 255.949 484.111 250.725 C 512.838 244.252 537.701 239.905 567.071 238.433 z" fill="rgb(158,119,176)" transform="translate(0,0)"></path>
<path d="M 1317.8 757.391 C 1324.51 769.627 1329.37 803.532 1332.48 818.192 C 1355.75 927.726 1334.47 1047.26 1258.03 1132.01 C 1255.58 1134.73 1250.29 1141.76 1247.19 1142.88 C 1245.79 1140.31 1246.5 1139.63 1246.85 1136.09 C 1248.53 1112.08 1244.87 1092.36 1237 1069.76 C 1276.67 1033.06 1304.37 989.131 1290.8 932.885 C 1286.61 915.481 1280.24 902.464 1272.55 886.518 C 1292.57 837.277 1303.45 808.825 1317.8 757.391 z" fill="rgb(158,119,176)" transform="translate(0,0)"></path>
<path d="M 710.159 1120.36 L 715.135 1122.48 L 722.7 1129.47 L 718.405 1131.58 C 741.075 1160.51 756.979 1186.53 775.745 1218.11 C 788.629 1239.79 802.929 1262.11 813.244 1285.22 C 795.704 1280.47 775.09 1277.46 759.51 1268.14 C 756.52 1253.61 749.138 1215.84 744.319 1203.81 C 744.229 1225.25 745.828 1243 748.323 1264.15 C 708.146 1257.93 685.7 1260.19 652.174 1283.63 C 652.484 1272.31 654.187 1243.33 653.487 1233.75 C 647.682 1256.24 644.965 1283.25 644.977 1306.65 C 642.359 1305.94 631.009 1300.76 627.69 1299.34 C 640.083 1252.17 670.271 1149.37 710.159 1120.36 z" fill="rgb(245,159,149)" transform="translate(0,0)"></path>
<path d="M 710.159 1120.36 L 715.135 1122.48 L 722.7 1129.47 L 718.405 1131.58 C 715.825 1127.85 712.872 1124.02 710.159 1120.36 z" fill="rgb(72,30,85)" transform="translate(0,0)"></path>
<path d="M 919.817 1207.01 C 925.51 1217.68 934.577 1228.04 940.326 1238.93 L 951.356 1254.91 C 959.169 1265.77 974.084 1287.52 979.668 1299.59 C 982.453 1304.94 984.987 1310.05 988.247 1315.14 C 992.681 1322.57 996.991 1330.08 1001.18 1337.67 C 995.982 1348.16 992.693 1356.41 988.889 1367.42 C 987.467 1371.54 984.186 1381.86 982.47 1385.3 C 979.957 1394.28 977.195 1405.7 970.378 1412.34 C 961.075 1421.44 948.164 1428.78 936.56 1434.48 C 932.953 1428.85 927.278 1422.15 923.851 1417.47 C 907.681 1395.39 908.782 1324.93 913.673 1297.94 C 914.262 1287.56 915.701 1277.24 917.978 1267.09 C 920.617 1247.76 919.977 1226.57 919.817 1207.01 z" fill="rgb(245,159,149)" transform="translate(0,0)"></path>
<path d="M 979.668 1299.59 C 982.453 1304.94 984.987 1310.05 988.247 1315.14 C 972.34 1330.26 954.833 1355.46 941.26 1372.84 C 934.65 1381.3 929.347 1390.77 921.896 1398.99 C 917.904 1392.29 916.505 1387.16 914.063 1379.76 C 925.47 1359.37 960.604 1311.28 979.668 1299.59 z" fill="rgb(255,255,255)" transform="translate(0,0)"></path>
<path d="M 919.817 1207.01 C 925.51 1217.68 934.577 1228.04 940.326 1238.93 L 951.356 1254.91 C 943.857 1263.94 936.085 1272.87 928.508 1281.86 C 925.729 1285.15 917.512 1296.15 914.86 1298.41 L 913.673 1297.94 C 914.262 1287.56 915.701 1277.24 917.978 1267.09 C 920.617 1247.76 919.977 1226.57 919.817 1207.01 z" fill="rgb(255,255,255)" transform="translate(0,0)"></path>
<path d="M 919.817 1207.01 C 925.51 1217.68 934.577 1228.04 940.326 1238.93 C 934.687 1245.84 923.123 1261.58 917.978 1267.09 C 920.617 1247.76 919.977 1226.57 919.817 1207.01 z" fill="rgb(245,159,149)" transform="translate(0,0)"></path>
<path d="M 970.378 1412.34 C 969.079 1404.86 977.393 1390.56 982.47 1385.3 C 979.957 1394.28 977.195 1405.7 970.378 1412.34 z" fill="rgb(255,255,255)" transform="translate(0,0)"></path>
<path d="M 1642.3 1716.99 L 1643.08 1717.21 C 1643.28 1718.98 1637.32 1728.26 1635.92 1731.16 C 1620.42 1763.25 1623.56 1792.36 1636.57 1824.54 C 1591.66 1859.73 1564.69 1881.09 1512.18 1906.44 C 1492.64 1883.81 1471.32 1861.42 1451.44 1838.66 C 1460.79 1836.14 1465.06 1835.05 1473.86 1831 C 1508.44 1812.56 1490.19 1785.66 1507.95 1756.62 C 1510.83 1751.92 1514.8 1747.96 1518.59 1743.97 C 1516.36 1748.84 1514.32 1753.8 1512.49 1758.83 C 1506.88 1774.35 1499.78 1803.54 1506.62 1819.65 C 1510.25 1828.19 1522.05 1833.43 1531.03 1828.41 L 1534 1826.75 L 1535.44 1825.94 C 1543.37 1830.39 1548.35 1834.66 1557.66 1831.88 C 1560.05 1831.31 1567.49 1823.51 1569.67 1824.06 C 1576.64 1825.84 1583.15 1829.45 1590.09 1825.08 C 1606.11 1814.97 1596.52 1790.49 1597.26 1775.33 C 1597.85 1763.26 1600.93 1754.01 1605.36 1743.75 C 1613.87 1724 1624.79 1723.25 1642.3 1716.99 z" fill="rgb(245,159,149)" transform="translate(0,0)"></path>
<path d="M 1613.31 1765.64 C 1615.46 1768.2 1614.81 1768.48 1615.32 1772.49 C 1617.03 1773.38 1618.31 1772.62 1620.76 1772.14 L 1622.51 1773.32 C 1622.33 1777.47 1622.07 1776.59 1619.64 1780.65 C 1615.01 1782.28 1614.31 1781.96 1610.43 1779.55 C 1606.56 1773.66 1608.69 1769.82 1613.31 1765.64 z" fill="rgb(67,24,102)" transform="translate(0,0)"></path>
<path d="M 1588.41 1119.16 C 1595.57 1117.68 1617.17 1134.11 1623.66 1138.54 C 1567.71 1150.5 1513.7 1163.2 1458.06 1176.36 C 1388.54 1192.8 1315.81 1207.01 1246.76 1225.17 L 1229.9 1229.73 C 1224.26 1222.68 1217.79 1213.16 1212.41 1205.7 C 1235.21 1196.5 1294.52 1184.3 1320.62 1178.25 C 1409.32 1157.69 1499.78 1140.06 1588.41 1119.16 z" fill="rgb(255,255,255)" transform="translate(0,0)"></path>
<path d="M 1471.33 1152.27 C 1477.63 1151.52 1486.77 1151.42 1489.2 1158.61 C 1486.15 1167.48 1452.98 1172.07 1444.22 1173.84 C 1438.27 1175.25 1424.6 1177.46 1426.8 1166.97 C 1433.23 1158.78 1460.42 1154.4 1471.33 1152.27 z" fill="rgb(67,24,102)" transform="translate(0,0)"></path>
<path d="M 789.46 1413.34 C 792.564 1420.3 795.49 1426.72 798.912 1433.53 C 802.818 1439.88 806.728 1446.39 810.724 1452.66 C 802.883 1453.66 795.368 1454.7 788.116 1458.07 C 760.181 1471.02 733.298 1501.57 736.256 1534.13 C 736.334 1534.99 736.788 1535.73 737.177 1536.47 L 738.537 1536.35 C 741.891 1530.63 743.688 1522.71 746.838 1516.26 C 757.002 1495.43 774.136 1475.69 797.033 1468.98 C 802.17 1467.47 816.704 1466.22 818.548 1472.87 C 817.134 1474.86 802.53 1482.21 796.13 1488.07 C 765.79 1515.82 749.272 1560.37 755.825 1600.9 C 746.92 1594.19 739.15 1586.1 732.811 1576.93 C 727.326 1569.68 723.051 1563.12 718.13 1555.54 C 709.568 1542.19 701.741 1523.04 696.033 1508.07 C 692.971 1500.35 687.855 1488.2 686.362 1480.39 C 714.917 1448.77 745.659 1421.98 789.46 1413.34 z" fill="rgb(245,159,149)" transform="translate(0,0)"></path>
<path d="M 789.46 1413.34 C 792.564 1420.3 795.49 1426.72 798.912 1433.53 C 747.753 1448.41 725.699 1464.79 696.033 1508.07 C 692.971 1500.35 687.855 1488.2 686.362 1480.39 C 714.917 1448.77 745.659 1421.98 789.46 1413.34 z" fill="rgb(255,255,255)" transform="translate(0,0)"></path>
<path d="M 738.687 1536.9 C 733.565 1553.93 734.251 1559.19 732.811 1576.93 C 727.326 1569.68 723.051 1563.12 718.13 1555.54 C 723.442 1548.7 731.818 1542.38 738.687 1536.9 z" fill="rgb(255,255,255)" transform="translate(0,0)"></path>
<path d="M 1206.82 1209.43 C 1211.02 1211.63 1221.04 1229.73 1223.4 1234.59 C 1185.31 1316.03 1140.73 1401.61 1099.81 1482.04 L 1068.65 1543.41 C 1066.54 1547.62 1060.37 1562.69 1057.32 1564.91 C 1054.06 1565.62 1051.59 1564.33 1048.32 1563.25 C 1042.89 1555.79 1042.98 1551.36 1042.52 1542.47 C 1051.63 1523.36 1063.69 1503.15 1073.18 1483.69 C 1080.58 1469.76 1086.51 1455.02 1093.9 1441.09 C 1107.59 1415.27 1133.09 1389.82 1131.29 1358.83 C 1135 1356.01 1138.07 1353.39 1141.58 1350.37 C 1143.51 1351.18 1146.83 1354.06 1147.99 1353.77 C 1165.19 1349.53 1163.24 1328.48 1150.95 1319.57 C 1168.83 1283.58 1187.33 1244.29 1206.82 1209.43 z" fill="rgb(255,255,255)" transform="translate(0,0)"></path>
<path d="M 1780.19 1680.46 C 1801.4 1685.49 1795.97 1696.42 1786.47 1711.45 C 1740.11 1784.87 1671.53 1845.41 1599.2 1892.55 C 1578.07 1906.32 1555.26 1918.06 1534.53 1932.15 C 1533.38 1932.72 1534.11 1932.51 1532.25 1932.32 C 1527.47 1927.19 1524.87 1922.86 1521.06 1917 C 1550.25 1900.74 1582.33 1881.43 1608.9 1861.72 C 1656.26 1826.57 1757.4 1732.86 1780.19 1680.46 z" fill="rgb(255,255,255)" transform="translate(0,0)"></path>
<path d="M 1761.87 1683.39 C 1763.86 1683.03 1764.05 1683.17 1766.11 1683.25 L 1766.47 1684.52 C 1746.65 1719.33 1704.57 1760.98 1676.34 1789.37 C 1669.87 1795.87 1654.94 1810.84 1648.68 1815.62 L 1646.96 1815.17 C 1635.09 1785.81 1633.42 1751.17 1653.55 1724.8 C 1674.69 1697.13 1728.95 1688.33 1761.87 1683.39 z" fill="rgb(255,255,255)" transform="translate(0,0)"></path>
<path d="M 1923.7 1640.75 C 1931.41 1643.26 1934.36 1644.1 1941.18 1648.49 C 1922.86 1707.56 1804.15 1801.64 1751.66 1836.81 C 1732.37 1849.75 1707.36 1864.03 1687.48 1877.72 C 1686.61 1878.57 1687.27 1878.06 1685.1 1878.52 C 1680 1874.33 1675.7 1868.34 1672.08 1862.86 C 1677.73 1858.8 1685.25 1851.96 1691.17 1848.88 C 1740.45 1823.44 1785.03 1786.71 1826.83 1750.67 C 1854.26 1727.02 1910.68 1675.22 1923.7 1640.75 z" fill="rgb(255,255,255)" transform="translate(0,0)"></path>
<path d="M 1497.99 1701.94 C 1506.55 1711.21 1512.93 1721.97 1522.36 1731.48 C 1496.35 1742.41 1489.85 1763.43 1486.53 1789.08 C 1482.93 1816.86 1467.96 1822.64 1442.64 1827.26 L 1437.85 1821.16 C 1427.28 1807.73 1416.6 1794.39 1405.82 1781.13 C 1435.4 1743.7 1456.19 1725.36 1497.99 1701.94 z" fill="rgb(255,255,255)" transform="translate(0,0)"></path>
<path d="M 1245.35 1598.07 C 1254.4 1605.14 1279.43 1640.23 1286.18 1650.81 C 1257.05 1674.93 1225.23 1697.79 1194.68 1720.33 L 1170.52 1738.19 C 1174.36 1715.42 1180.06 1678.19 1189.59 1656.67 C 1191.57 1652.21 1206.57 1638.01 1211.04 1633.42 C 1222.4 1621.56 1233.84 1609.78 1245.35 1598.07 z" fill="rgb(255,255,255)" transform="translate(0,0)"></path>
<path d="M 715.135 1122.48 C 729.076 1127 750.921 1139.47 766.089 1145.29 C 775.913 1149.06 802.102 1156.32 808.128 1160.28 C 828.679 1173.8 849.063 1189.3 869.796 1203.06 C 847.38 1219.32 836.974 1250.6 822.94 1273.42 C 801.591 1233.08 757.229 1157.73 722.7 1129.47 L 715.135 1122.48 z" fill="rgb(245,159,149)" transform="translate(0,0)"></path>
<path d="M 713.594 189.455 C 731.971 188.696 746.683 189.444 765.048 190.391 C 738.92 205.468 716.818 219.502 693.755 239.377 C 682.409 237.005 668.753 235.747 657.095 234.07 C 608.663 227.103 571.719 225.981 523.555 234.263 C 500.717 238.416 490.103 241.93 468.384 249.186 C 480.121 241.936 506.114 233.244 519.668 228.003 C 586.256 202.254 642.552 191.572 713.594 189.455 z" fill="rgb(158,119,176)" transform="translate(0,0)"></path>
<path d="M 1892.23 1639.41 C 1899.79 1639.18 1905.27 1639.48 1912.85 1639.98 C 1899.54 1663.74 1842.75 1728.48 1819.88 1741.36 C 1817.39 1740.36 1817.47 1738.55 1816 1735.12 C 1813.47 1729.43 1808.91 1721.45 1805.85 1715.76 C 1814.94 1696.05 1815.6 1676.68 1792.94 1667.08 C 1826.92 1648.78 1854.26 1641.79 1892.23 1639.41 z" fill="rgb(255,255,255)" transform="translate(0,0)"></path>
<path d="M 608.709 1396.98 C 624.358 1392.99 635.868 1391.96 651.882 1392.49 C 653.149 1401.82 654.333 1412.39 656.313 1421.5 C 660.042 1443.39 663.347 1460.09 668.827 1481.52 C 643.372 1484.4 622.152 1495.82 600.646 1508.81 C 601.655 1478.1 601.811 1452.82 605.667 1421.86 L 608.709 1396.98 z" fill="rgb(245,159,149)" transform="translate(0,0)"></path>
<path d="M 608.709 1396.98 C 624.358 1392.99 635.868 1391.96 651.882 1392.49 C 653.149 1401.82 654.333 1412.39 656.313 1421.5 C 634.793 1417.86 627.149 1417.92 605.667 1421.86 L 608.709 1396.98 z" fill="rgb(255,255,255)" transform="translate(0,0)"></path>
<path d="M 1631.54 1647.81 L 1633.4 1647.91 C 1641.64 1653.92 1665.66 1681.73 1672.23 1690.25 C 1667.37 1692.64 1662.59 1696.22 1657.69 1698.5 C 1640.4 1706.53 1617.46 1709.21 1599.07 1715.54 C 1591.04 1718.3 1586.46 1723.76 1581.41 1725.93 C 1565.77 1719.72 1554.42 1718.98 1537.89 1718.86 L 1536.9 1717.51 C 1537.6 1713.66 1544.25 1707.54 1547.14 1704.63 C 1571.82 1679.78 1599.59 1661.7 1631.54 1647.81 z" fill="rgb(255,255,255)" transform="translate(0,0)"></path>
<path d="M 1255.97 1697.03 C 1261.32 1702.37 1264.97 1746.27 1264.77 1756.49 C 1262.98 1849.34 1196.2 1854.59 1120.84 1852.08 L 1121.88 1839.25 C 1122.55 1830.3 1122.82 1822.46 1122.98 1813.49 C 1178.95 1835.5 1240.79 1849.36 1246.01 1764.25 C 1247.12 1746.18 1242.47 1728.86 1236.02 1712.02 C 1242.6 1706.93 1249.25 1701.93 1255.97 1697.03 z" fill="rgb(158,119,176)" transform="translate(0,0)"></path>
<path d="M 1230.21 1716.88 L 1231.58 1718.04 C 1238.23 1744.13 1241.94 1771.64 1229.61 1796.9 C 1224.85 1806.67 1216.13 1817.1 1205.48 1820.04 C 1198.18 1822.06 1188.26 1823.06 1181.38 1819.27 C 1168.2 1804.07 1169.21 1780.79 1168.24 1761.37 C 1190.11 1748.69 1210.09 1732.3 1230.21 1716.88 z" fill="rgb(158,119,176)" transform="translate(0,0)"></path>
<path d="M 1075.88 1764.91 C 1082.07 1770.98 1081.19 1827.77 1080.05 1837.19 C 1076.25 1868.34 1066.71 1896.41 1041.6 1916.52 C 1034.17 1903.88 1039.19 1838.79 1039.78 1820.77 C 1040.08 1811.94 1039.54 1802.88 1038.94 1793.79 C 1051.6 1785.09 1064.13 1774.79 1075.88 1764.91 z" fill="rgb(158,119,176)" transform="translate(0,0)"></path>
<path d="M 1107.62 1734.77 C 1108.1 1738.82 1108.28 1744.29 1108.39 1748.5 C 1109.93 1805.54 1115.64 1869.85 1075.59 1916.29 C 1069.89 1922.9 1057.92 1934.73 1049.44 1936.61 C 1046.58 1935.15 1047.02 1934.63 1045.09 1931.33 L 1043.74 1927.52 C 1045.82 1922.59 1062.14 1911.35 1066.71 1904.8 C 1094.91 1864.36 1098.02 1804.86 1084.49 1757.6 C 1092.33 1750.12 1100.04 1742.51 1107.62 1734.77 z" fill="rgb(158,119,176)" transform="translate(0,0)"></path>
<path d="M 417.126 104.432 C 425.018 107.647 436.481 115.343 442.82 121.121 C 467.375 143.503 475.397 162.107 477.828 193.979 L 463.268 204.892 C 456.377 209.737 449.355 215.363 442.656 220.538 C 439.131 207.794 435.688 199.93 430.4 187.966 C 436.828 157.675 429.56 132.514 417.126 104.432 z" fill="rgb(158,119,176)" transform="translate(0,0)"></path>
<path d="M 627.69 1299.34 C 631.009 1300.76 642.359 1305.94 644.977 1306.65 C 644.979 1318.56 645.167 1326.3 646.177 1338.23 C 647.609 1356.36 649.511 1374.45 651.882 1392.49 C 635.868 1391.96 624.358 1392.99 608.709 1396.98 C 612.119 1372.88 616.389 1348.92 621.513 1325.13 C 623.731 1317.91 625.927 1306.95 627.69 1299.34 z" fill="rgb(245,159,149)" transform="translate(0,0)"></path>
<path d="M 627.69 1299.34 C 631.009 1300.76 642.359 1305.94 644.977 1306.65 C 644.979 1318.56 645.167 1326.3 646.177 1338.23 C 639.288 1332.18 629.926 1328.69 621.513 1325.13 C 623.731 1317.91 625.927 1306.95 627.69 1299.34 z" fill="rgb(255,255,255)" transform="translate(0,0)"></path>
<path d="M 906.788 284.038 C 909.024 286.411 911.54 301.26 912.674 305.792 C 923.863 350.685 947.537 392.422 976.46 428.236 C 982.39 435.58 992.818 445.967 997.448 453.267 C 994.134 451.937 990.548 447.902 987.848 445.288 C 977.555 435.257 967.377 426.489 957.348 415.777 C 924.513 380.704 897.132 340.771 882.795 294.634 C 889.977 290.98 899.259 287.275 906.788 284.038 z" fill="rgb(158,119,176)" transform="translate(0,0)"></path>
<path d="M 293.024 133.586 C 302.828 131.977 306.781 131.912 316.507 131.541 C 322.686 131.306 342.118 133.694 344.524 132.517 C 389.47 147.195 413.011 190.307 427.694 232.193 L 418.483 240.016 C 392.593 186.219 354.005 143.769 293.024 133.586 z" fill="rgb(158,119,176)" transform="translate(0,0)"></path>
<path d="M 1170.83 1673.98 L 1171.41 1674.57 C 1171.54 1676.71 1171.74 1676.11 1171.17 1677.75 C 1163.57 1699.97 1159.16 1722.3 1155.69 1745.46 C 1146.92 1752.24 1131.31 1761.89 1121.72 1767.35 L 1120.25 1766.69 C 1119.14 1752.19 1117.94 1742.01 1114.66 1727.87 C 1132.92 1714.05 1152.44 1687.45 1170.83 1673.98 z" fill="rgb(158,119,176)" transform="translate(0,0)"></path>
<path d="M 1482.49 1684 C 1485.74 1687.85 1488.95 1692.14 1492.05 1696.13 C 1451.54 1720.22 1429.77 1738.05 1401.04 1775.79 C 1397.94 1771.81 1394.41 1766.43 1391.48 1762.18 C 1421.24 1726.67 1443.56 1708.36 1482.49 1684 z" fill="rgb(255,255,255)" transform="translate(0,0)"></path>
<path d="M 1615.95 1632.91 C 1620.68 1633.41 1623.66 1637.95 1626.81 1641.82 C 1581.99 1661.25 1564.29 1677.34 1530.71 1710.23 L 1529.53 1710.39 C 1526.13 1706.33 1522.68 1702.31 1519.16 1698.34 C 1550.33 1666.83 1576.13 1650.76 1615.95 1632.91 z" fill="rgb(255,255,255)" transform="translate(0,0)"></path>
<path d="M 1515.65 1784 C 1519.01 1765.51 1529.36 1729.74 1553.42 1730.27 L 1554.91 1731.62 C 1554.17 1735.83 1547.92 1743.68 1545.71 1749.68 C 1541.08 1762.19 1538.37 1772.95 1535.59 1785.92 C 1534.5 1795.89 1534.19 1817.79 1522.84 1820.25 C 1510.4 1816.37 1512.78 1793.82 1515.65 1784 z" fill="rgb(255,255,255)" transform="translate(0,0)"></path>
<path d="M 1517.7 1783.34 C 1520.02 1787.38 1518.46 1786.06 1521.98 1788.09 C 1525.86 1788.06 1526.35 1787.58 1529.72 1785.85 C 1531.75 1787.07 1532.55 1786.35 1535.59 1785.92 C 1534.5 1795.89 1534.19 1817.79 1522.84 1820.25 C 1510.4 1816.37 1512.78 1793.82 1515.65 1784 L 1517.7 1783.34 z" fill="rgb(245,159,149)" transform="translate(0,0)"></path>
<path d="M 1517.7 1783.34 C 1521.08 1779.31 1519.48 1780.15 1524.06 1778.57 C 1528.11 1779.28 1526.39 1778.39 1529.3 1781.51 C 1529.49 1783.07 1529.69 1784.28 1529.72 1785.85 C 1526.35 1787.58 1525.86 1788.06 1521.98 1788.09 C 1518.46 1786.06 1520.02 1787.38 1517.7 1783.34 z" fill="rgb(67,24,102)" transform="translate(0,0)"></path>
<path d="M 816.253 1119.69 C 830.406 1123.91 850.099 1133.12 866.701 1138.33 C 866.688 1158.15 865.732 1170.13 870.724 1189.44 L 869.064 1189.25 C 855.62 1176.06 841.82 1166.21 826.736 1155.01 C 829.413 1150.58 830.664 1147.63 832.741 1142.96 C 829.333 1133.77 822.605 1127.32 816.253 1119.69 z" fill="rgb(255,255,255)" transform="translate(0,0)"></path>
<path d="M 1154.03 1758.22 C 1154.75 1759.74 1155.17 1769.79 1155.32 1771.96 C 1156.61 1791.02 1158.56 1800.16 1167.8 1816.46 C 1159.7 1813.87 1151.09 1811.5 1142.9 1809.1 C 1137.37 1807.19 1128.94 1805.08 1123.11 1803.41 C 1123.04 1794.24 1122.75 1787.27 1121.95 1778.14 C 1132.76 1771.69 1143.45 1765.05 1154.03 1758.22 z" fill="rgb(158,119,176)" transform="translate(0,0)"></path>
<path d="M 1798.74 1726.72 C 1804.03 1732.28 1807.74 1742.96 1810.54 1750.13 C 1785.25 1771.12 1754.97 1795.27 1728.48 1814.48 C 1725.3 1817 1721.37 1819.61 1718.01 1821.98 C 1726.65 1811.42 1742.38 1796.96 1752.37 1786.29 C 1771.36 1766.03 1783.77 1749.78 1798.74 1726.72 z" fill="rgb(187,92,142)" transform="translate(0,0)"></path>
<path d="M 875.843 1154.8 C 884.367 1159.03 896.203 1169.39 906.907 1174.88 C 904.562 1191.73 905.206 1218.82 905.169 1236.62 C 904.746 1237.18 905.07 1236.88 903.946 1237.13 C 887.166 1210.17 880.847 1185.98 875.843 1154.8 z" fill="rgb(245,159,149)" transform="translate(0,0)"></path>
<path d="M 1517.13 1330.48 C 1524.92 1333.68 1534.53 1336.96 1542.94 1338.1 C 1548.84 1338.9 1560.04 1337.07 1565.22 1339.08 C 1569.53 1345.22 1564.73 1353.31 1559.2 1357.15 C 1540.39 1362.82 1524.5 1358.19 1510.74 1344.52 C 1513 1338.19 1513.68 1336.38 1517.13 1330.48 z" fill="rgb(255,255,255)" transform="translate(0,0)"></path>
<path d="M 1530.04 1304.22 C 1534.06 1303.9 1572.87 1304.64 1574.78 1305.7 C 1579.3 1314.16 1574.32 1319.65 1567.22 1323.35 C 1556.92 1325.15 1516.05 1327.58 1522.53 1308.46 C 1525.08 1305.47 1526.32 1305.42 1530.04 1304.22 z" fill="rgb(255,255,255)" transform="translate(0,0)"></path>
<path d="M 1579.19 1265.45 C 1587.11 1266.16 1589.05 1281.14 1582.25 1286.3 C 1573.29 1293.11 1562.74 1291.68 1552.33 1291.34 C 1543.32 1289.74 1540.99 1283.2 1545.66 1275.81 C 1550.99 1267.39 1569.36 1266.66 1579.19 1265.45 z" fill="rgb(255,255,255)" transform="translate(0,0)"></path>
<path d="M 975.374 1556.5 C 1000.02 1538.78 1016.6 1523.51 1037.82 1501.56 C 1040.37 1505.67 1043.12 1509.8 1045.14 1514.17 L 1039.38 1524.89 C 1019.48 1537.45 998.538 1545.96 978.284 1558.32 L 975.374 1556.5 z" fill="rgb(245,159,149)" transform="translate(0,0)"></path>
<path d="M 1031.05 1798.22 L 1031.46 1799.14 C 1030.73 1816.91 1014.83 1842.01 1006.47 1858.3 C 1003.29 1846.16 1003.85 1824.09 1003.9 1811.24 C 1014.57 1807.54 1021.35 1803.87 1031.05 1798.22 z" fill="rgb(158,119,176)" transform="translate(0,0)"></path>
<path d="M 1549.55 1773.73 C 1555.51 1767.93 1560.12 1769.22 1563.45 1776.64 L 1564.82 1777.63 C 1563.55 1789.13 1560.53 1801.95 1560.08 1813.88 C 1559.7 1815.81 1558.86 1818.28 1556.96 1819.08 C 1540.57 1826.02 1543.87 1802.6 1545.29 1794.63 C 1546.74 1786.48 1547.09 1780.82 1549.73 1774.47 L 1549.55 1773.73 z" fill="rgb(245,159,149)" transform="translate(0,0)"></path>
<path d="M 1549.55 1773.73 C 1555.51 1767.93 1560.12 1769.22 1563.45 1776.64 C 1560.62 1780.08 1559.53 1781.81 1555.66 1782.49 C 1552.76 1781.04 1551.37 1777.48 1549.73 1774.47 L 1549.55 1773.73 z" fill="rgb(67,24,102)" transform="translate(0,0)"></path>
<path d="M 1514.16 1365.15 C 1520.41 1367.93 1526.07 1370.21 1532.86 1371.46 C 1545.26 1373.74 1555.67 1375.67 1543.6 1389.08 C 1532.42 1393.09 1512.28 1395.73 1511.13 1378.71 C 1510.89 1375.19 1513.1 1368.71 1514.16 1365.15 z" fill="rgb(255,255,255)" transform="translate(0,0)"></path>
<path d="M 730.255 1823.57 C 733.517 1826.59 749.582 1846.82 754.095 1852 C 748.131 1854.25 745.08 1854.74 738.943 1855.9 C 731.21 1856.25 723.649 1856.08 715.92 1855.97 C 720.171 1844.74 725.165 1834.43 730.255 1823.57 z" fill="rgb(213,123,121)" transform="translate(0,0)"></path>
<path d="M 1579.27 1733.14 C 1573.83 1748.73 1569.16 1761.7 1564.82 1777.63 L 1563.45 1776.64 C 1560.12 1769.22 1555.51 1767.93 1549.55 1773.73 C 1550.25 1754.02 1561.23 1740.07 1579.27 1733.14 z" fill="rgb(255,255,255)" transform="translate(0,0)"></path>
<path d="M 1587.1 1770.95 L 1588.47 1771.06 C 1588.11 1780.44 1590.42 1812.73 1581.63 1817.07 C 1568.97 1814.72 1570.63 1784.36 1575.55 1776.54 C 1581.09 1777.32 1577.6 1779.62 1583.79 1779.74 C 1586.5 1777.29 1586.18 1775.14 1587.1 1770.95 z" fill="rgb(245,159,149)" transform="translate(0,0)"></path>
<path d="M 1575.59 1771.8 C 1580.49 1753.11 1585.59 1738.28 1602.56 1728.06 C 1594.87 1743.51 1591.1 1753.74 1588.47 1771.06 L 1587.1 1770.95 C 1583.17 1770.79 1579.49 1771.36 1575.59 1771.8 z" fill="rgb(255,255,255)" transform="translate(0,0)"></path>
<path d="M 1071.69 1462.88 C 1071.47 1469.25 1054.73 1500.13 1050.32 1506.25 C 1050.04 1500.01 1049.73 1495.93 1048.87 1489.73 C 1056.18 1481.77 1064.89 1469.42 1071.69 1462.88 z" fill="rgb(245,159,149)" transform="translate(0,0)"></path>
<path d="M 975.374 1556.5 L 978.284 1558.32 L 932.403 1587.4 L 931.413 1585.76 C 945.909 1575.64 960.487 1567.26 975.374 1556.5 z" fill="rgb(213,123,121)" transform="translate(0,0)"></path>
<path d="M 1151.61 1328.76 C 1156.62 1333.91 1154.12 1343.55 1148.99 1348.13 C 1147.28 1347.09 1147.84 1347.48 1146.53 1345.91 C 1146.9 1342.59 1150.37 1333.87 1151.61 1328.76 z" fill="rgb(255,255,255)" transform="translate(0,0)"></path>
<metadata><recraft-signature>{"signed_by": "recraft", "signature_b64": "DOBau5x4s1iQpFF0JqdxlYUzmX8E87Sp4ivdH6ECpPn0ok7TE2IblVdJH0WoPIA3k8xhZWyAsNlyXj9yrySYDA==", "signing_algo": "Ed25519", "generation_timestamp": 1771002030, "identifier": "da8a684d-73f1-4348-b06e-ff8f61c79d95"}</recraft-signature></metadata></svg>